<svg width="1200" height="628" viewBox="0 0 1200 628" xmlns="http://www.w3.org/2000/svg"><defs><pattern id="satori_pattern_id-0_0" x="0" y="0" width="1" height="1" patternUnits="objectBoundingBox"><linearGradient id="satori_biid-0_0" x1="0" y1="0" x2="0.8660254037844387" y2="0.49999999999999983"><stop offset="0%" stop-color="rgb(27,26,28)"/><stop offset="30%" stop-color="rgb(6,6,7)"/><stop offset="70%" stop-color="rgb(25,95,60)"/><stop offset="100%" stop-color="rgb(16,15,16)"/></linearGradient><rect x="0" y="0" width="1200" height="628" fill="url(#satori_biid-0_0)"/></pattern></defs><rect x="0" y="0" width="1200" height="628" fill="url(#satori_pattern_id-0_0)"/><clipPath id="satori_cp-id-0-0-0"><rect x="32" y="32" width="72" height="72"/></clipPath><mask id="satori_om-id-0-0-0"><rect x="32" y="32" width="72" height="72" fill="#fff"/></mask><image x="32" y="32" width="72" height="72" href="data:image/svg+xml;utf8,%3Csvg  xmlns=%22http://www.w3.org/2000/svg%22 width=%2272%22 height=%2272%22 viewBox=%220 0 24 24%22%3E%3Cdefs%3E%3ClinearGradient id=%22b%22 gradientUnits=%22userSpaceOnUse%22 x1=%2219.78%22 x2=%2210.749%22 y1=%2211.04%22 y2=%2220.16%22%3E%3Cstop offset=%220%22 stop-color=%22%23fff%22%3E%3C/stop%3E%3Cstop offset=%221%22 stop-color=%22%23ababab%22%3E%3C/stop%3E%3C/linearGradient%3E%3ClinearGradient id=%22d%22 gradientUnits=%22userSpaceOnUse%22 x1=%2213.669%22 x2=%227.911%22 y1=%222.441%22 y2=%2219.191%22%3E%3Cstop offset=%220%22 stop-color=%22%23fff%22%3E%3C/stop%3E%3Cstop offset=%221%22 stop-color=%22%23ababab%22%3E%3C/stop%3E%3C/linearGradient%3E%3CclipPath id=%22a%22%3E%3Cpath d=%22M6.621 6.548h16.145v19H6.621z%22%3E%3C/path%3E%3C/clipPath%3E%3CclipPath id=%22c%22%3E%3Cpath d=%22M0-4.236h15.108v30H0z%22%3E%3C/path%3E%3C/clipPath%3E%3C/defs%3E%3Cpath clip-path=%22url(%23a)%22 d=%22M15.105 12.55c.019.115.04.266.065.453.024.188.036.382.036.583 0 .442-.063.867-.188 1.275a3.145 3.145 0 0 1-.568 1.08c-.255.312-.57.56-.944.742-.374.182-.81.273-1.31.273-.365 0-.691-.06-.98-.18a2.018 2.018 0 0 1-.726-.504 2.242 2.242 0 0 1-.454-.77 2.909 2.909 0 0 1-.158-.98c0-.527.11-1.027.33-1.497.222-.47.52-.902.894-1.296a7.225 7.225 0 0 1 1.303-1.073 9.111 9.111 0 0 1 1.562-.814 9.933 9.933 0 0 1 1.678-.51 7.955 7.955 0 0 1 1.634-.18 8.9 8.9 0 0 1 1.8.172 9.242 9.242 0 0 1 1.642.504c.374-.163.756-.312 1.145-.446.388-.135.79-.211 1.202-.23l.029.086c-.135 0-.298.024-.49.072a5.368 5.368 0 0 0-1.138.44c-.172.09-.302.179-.388.265.365.211.657.483.878.814.221.331.331.713.331 1.145 0 .412-.103.765-.31 1.058a2.706 2.706 0 0 1-.777.735 4.13 4.13 0 0 1-1.022.46 9.04 9.04 0 0 1-1.059.252l-.014.03c.298.037.588.083.871.136.283.053.538.142.763.266.226.125.406.3.54.526.135.226.202.526.202.9a3.02 3.02 0 0 1-.338 1.433c-.226.427-.526.79-.9 1.087a4.143 4.143 0 0 1-1.268.684c-.47.158-.95.238-1.44.238a2.54 2.54 0 0 1-.619-.08 1.949 1.949 0 0 1-.569-.237 1.394 1.394 0 0 1-.417-.404 1.003 1.003 0 0 1-.166-.575.91.91 0 0 1 .26-.649.84.84 0 0 1 .633-.273c.288 0 .542.096.763.288a1.11 1.11 0 0 0-.425.432 1.215 1.215 0 0 0-.136.576c0 .25.067.437.201.562.135.124.327.187.576.187a1.8 1.8 0 0 0 1.023-.31c.307-.206.566-.465.777-.777.211-.313.375-.656.49-1.03.115-.375.173-.73.173-1.066 0-.633-.166-1.096-.497-1.39-.331-.292-.843-.438-1.534-.438l.015-.116a4.18 4.18 0 0 0 1.05-.194 3.09 3.09 0 0 0 .93-.475c.273-.207.496-.466.67-.778.172-.312.258-.684.258-1.116 0-.269-.048-.526-.144-.77a1.622 1.622 0 0 0-.46-.641 5.97 5.97 0 0 0-1.296 1.483c-.384.605-.766 1.25-1.145 1.937-.38.686-.775 1.377-1.188 2.073a10.54 10.54 0 0 1-1.419 1.887 6.595 6.595 0 0 1-1.85 1.368c-.7.35-1.526.526-2.477.526-.307 0-.607-.041-.9-.123a2.61 2.61 0 0 1-.785-.36 1.969 1.969 0 0 1-.561-.583 1.463 1.463 0 0 1-.216-.792c0-.279.074-.518.223-.72.149-.202.377-.303.684-.303.22 0 .396.068.526.202s.194.302.194.504a.654.654 0 0 1-.173.46c-.115.126-.23.198-.345.217a.768.768 0 0 0-.015.173c0 .393.127.684.382.87.254.188.626.282 1.116.282.653 0 1.226-.178 1.72-.533a6.052 6.052 0 0 0 1.361-1.39c.413-.57.812-1.21 1.196-1.915.384-.706.794-1.406 1.23-2.102.438-.696.925-1.354 1.462-1.973a6.578 6.578 0 0 1 1.887-1.505 3.807 3.807 0 0 0-1.325-.655c-.5-.14-.994-.209-1.483-.209a6.76 6.76 0 0 0-2.117.36c-.73.24-1.394.588-1.994 1.044a5.73 5.73 0 0 0-1.476 1.656c-.384.648-.576 1.38-.576 2.196 0 .23.03.47.093.72s.161.478.295.684c.135.207.303.377.504.511.202.135.437.202.706.202a1.97 1.97 0 0 0 1-.252c.294-.168.546-.394.757-.677a3.11 3.11 0 0 0 .482-.98c.11-.369.166-.75.166-1.144 0-.23-.01-.43-.029-.598a46.06 46.06 0 0 0-.058-.482l.159-.014Z%22 fill=%22url(%23b)%22%3E%3C/path%3E%3Cpath clip-path=%22url(%23c)%22 d=%22M15.108 12.625c-.154.252-.333.518-.536.798-.202.28-.43.532-.682.756-.252.224-.522.41-.809.557-.287.147-.591.22-.913.22-.35 0-.707-.105-1.071-.315-.252-.14-.48-.35-.682-.63a7.12 7.12 0 0 1-.546-.882 17.7 17.7 0 0 1-.441-.903 7.872 7.872 0 0 0-.347-.693c-.322.112-.64.196-.955.252a5.448 5.448 0 0 1-.956.084c-.462 0-.928-.056-1.396-.168a2.576 2.576 0 0 1-1.208-.65 5.65 5.65 0 0 0-.798.671 7.048 7.048 0 0 0-.693.798c-.07 0-.105-.049-.105-.147.238-.28.48-.539.724-.777a7.4 7.4 0 0 1 .767-.65c-.448-.49-.672-1.1-.672-1.828 0-.448.087-.913.262-1.396.175-.483.4-.956.672-1.418.274-.462.571-.9.893-1.312.322-.413.637-.767.945-1.06a5.3 5.3 0 0 1 3.675-1.513c.07 0 .115.014.136.042a.14.14 0 0 1 .032.084c0 .042-.014.063-.042.063a.973.973 0 0 0-.189-.02h-.147c-.336 0-.672.08-1.008.24a4.53 4.53 0 0 0-.945.61c-.294.245-.56.504-.798.777s-.441.514-.609.724c-.196.266-.403.574-.62.924-.216.35-.416.718-.598 1.103a7.648 7.648 0 0 0-.452 1.218 4.79 4.79 0 0 0-.178 1.291c0 .364.07.721.21 1.071.476-.322.931-.535 1.365-.64.434-.105.791-.158 1.071-.158.154 0 .318.01.493.032.176.02.361.073.557.157.196.084.399.214.609.389.21.175.42.416.63.724a4.999 4.999 0 0 0 1.386-1.04 7.732 7.732 0 0 0 1.785-3.076c.168-.56.252-1.085.252-1.575 0-.448-.053-.864-.158-1.25a2.497 2.497 0 0 0-.472-.955 1.746 1.746 0 0 0-.388-.325 1.35 1.35 0 0 0-.41-.179c-.07-.028-.105-.049-.105-.063 0-.028.035-.042.105-.042.112 0 .245.004.399.01.154.008.294.011.42.011.084 0 .178.01.284.032a.63.63 0 0 1 .283.136c.21.168.413.417.609.746s.294.794.294 1.396c0 .42-.077.914-.231 1.48a7.43 7.43 0 0 1-.735 1.733A8.669 8.669 0 0 1 11.78 9.79a6.94 6.94 0 0 1-1.922 1.386c.084.126.182.29.294.494.112.203.238.42.378.65.14.232.294.466.462.704.168.238.343.462.525.672.406.462.826.693 1.26.693.084 0 .203-.014.357-.042.154-.028.325-.101.514-.22.19-.12.396-.305.62-.557.224-.252.448-.602.672-1.05.028-.042.063-.049.105-.02.042.027.063.07.063.125Zm-6.111-1.239-.304-.472a2.253 2.253 0 0 0-.378-.441 1.8 1.8 0 0 0-.525-.326 1.952 1.952 0 0 0-.746-.126c-.35 0-.686.06-1.008.179a4.965 4.965 0 0 0-.945.472c.238.392.574.658 1.008.798.434.14.861.21 1.281.21.532 0 1.071-.098 1.617-.294Z%22 fill=%22url(%23d)%22%3E%3C/path%3E%3C/svg%3E" preserveAspectRatio="none" clip-path="url(#satori_cp-id-0-0-0)" mask="url(#satori_om-id-0-0-0)"/><path fill="#ffffff" d="M488.5 283.0L488.5 283.0L488.5 297.1L481.7 297.1L481.7 264.5L488.3 264.5L488.3 277.0L488.6 277.0Q489.4 274.8 491.3 273.6Q493.1 272.4 495.9 272.4L495.9 272.4Q499.7 272.4 502.0 274.8Q504.3 277.3 504.3 281.6L504.3 281.6L504.3 297.1L497.6 297.1L497.6 282.8Q497.6 280.5 496.4 279.3Q495.3 278.0 493.2 278.0L493.2 278.0Q491.1 278.0 489.8 279.3Q488.5 280.6 488.5 283.0ZM520.8 297.6L520.8 297.6Q517.1 297.6 514.3 296.1Q511.6 294.5 510.1 291.7Q508.7 288.9 508.7 285.0L508.7 285.0Q508.7 281.2 510.1 278.4Q511.6 275.6 514.3 274.0Q516.9 272.4 520.5 272.4L520.5 272.4Q523.8 272.4 526.4 273.7Q529.0 275.1 530.5 277.9Q532.0 280.6 532.0 284.8L532.0 284.8L532.0 286.6L515.4 286.6L515.4 286.7Q515.4 289.4 516.9 291.0Q518.4 292.5 520.9 292.5L520.9 292.5Q522.6 292.5 523.9 291.8Q525.1 291.1 525.6 289.7L525.6 289.7L531.9 290.1Q531.2 293.5 528.3 295.6Q525.3 297.6 520.8 297.6ZM515.4 282.4L515.4 282.4L525.6 282.4Q525.6 280.3 524.2 278.8Q522.9 277.4 520.6 277.4L520.6 277.4Q518.4 277.4 516.9 278.9Q515.5 280.4 515.4 282.4ZM536.4 264.5L543.2 264.5L543.2 297.1L536.4 297.1L536.4 264.5ZM548.6 264.5L555.4 264.5L555.4 297.1L548.6 297.1L548.6 264.5ZM571.9 297.6L571.9 297.6Q568.2 297.6 565.5 296.0Q562.8 294.4 561.3 291.6Q559.8 288.8 559.8 285.0L559.8 285.0Q559.8 281.2 561.3 278.4Q562.8 275.5 565.5 274.0Q568.2 272.4 571.9 272.4L571.9 272.4Q575.6 272.4 578.3 274.0Q581.0 275.5 582.4 278.4Q583.9 281.2 583.9 285.0L583.9 285.0Q583.9 288.8 582.4 291.6Q581.0 294.4 578.3 296.0Q575.6 297.6 571.9 297.6ZM571.9 292.4L571.9 292.4Q574.4 292.4 575.7 290.3Q577.0 288.2 577.0 285.0L577.0 285.0Q577.0 281.8 575.7 279.6Q574.4 277.5 571.9 277.5L571.9 277.5Q569.3 277.5 568.0 279.6Q566.7 281.8 566.7 285.0L566.7 285.0Q566.7 288.2 568.0 290.3Q569.3 292.4 571.9 292.4ZM610.7 297.1L603.5 297.1L596.9 272.7L603.7 272.7L607.5 289.1L607.7 289.1L611.7 272.7L618.4 272.7L622.4 289.0L622.6 289.0L626.3 272.7L633.2 272.7L626.6 297.1L619.4 297.1L615.2 281.8L614.9 281.8L610.7 297.1ZM647.2 297.6L647.2 297.6Q643.5 297.6 640.8 296.0Q638.1 294.4 636.7 291.6Q635.2 288.8 635.2 285.0L635.2 285.0Q635.2 281.2 636.7 278.4Q638.1 275.5 640.8 274.0Q643.5 272.4 647.2 272.4L647.2 272.4Q650.9 272.4 653.6 274.0Q656.3 275.5 657.8 278.4Q659.2 281.2 659.2 285.0L659.2 285.0Q659.2 288.8 657.8 291.6Q656.3 294.4 653.6 296.0Q650.9 297.6 647.2 297.6ZM647.3 292.4L647.3 292.4Q649.8 292.4 651.1 290.3Q652.4 288.2 652.4 285.0L652.4 285.0Q652.4 281.8 651.1 279.6Q649.8 277.5 647.3 277.5L647.3 277.5Q644.7 277.5 643.4 279.6Q642.1 281.8 642.1 285.0L642.1 285.0Q642.1 288.2 643.4 290.3Q644.7 292.4 647.3 292.4ZM670.4 297.1L663.7 297.1L663.7 272.7L670.2 272.7L670.2 277.0L670.5 277.0Q671.2 274.7 672.7 273.5Q674.3 272.3 676.4 272.3L676.4 272.3Q677.5 272.3 678.5 272.6L678.5 272.6L678.5 278.6Q678.0 278.4 677.2 278.3Q676.3 278.2 675.6 278.2L675.6 278.2Q673.4 278.2 671.9 279.6Q670.4 281.0 670.4 283.3L670.4 283.3L670.4 297.1ZM682.0 264.5L688.8 264.5L688.8 297.1L682.0 297.1L682.0 264.5ZM703.2 297.5L703.2 297.5Q700.4 297.5 698.1 296.1Q695.9 294.6 694.6 291.8Q693.3 289.0 693.3 284.9L693.3 284.9Q693.3 280.7 694.6 277.9Q696.0 275.2 698.2 273.8Q700.5 272.4 703.2 272.4L703.2 272.4Q705.2 272.4 706.6 273.1Q708.0 273.8 708.8 274.8Q709.7 275.8 710.1 276.8L710.1 276.8L710.3 276.8L710.3 264.5L717.1 264.5L717.1 297.1L710.4 297.1L710.4 293.2L710.1 293.2Q709.6 294.2 708.8 295.2Q707.9 296.2 706.5 296.9Q705.1 297.5 703.2 297.5ZM705.3 292.1L705.3 292.1Q707.8 292.1 709.1 290.1Q710.5 288.2 710.5 284.9L710.5 284.9Q710.5 281.6 709.1 279.7Q707.8 277.8 705.3 277.8L705.3 277.8Q702.8 277.8 701.5 279.7Q700.2 281.7 700.2 284.9L700.2 284.9Q700.2 288.1 701.5 290.1Q702.8 292.1 705.3 292.1Z "/><path fill="#a3a3a3" d="M548.8 333.3L548.8 333.3Q546.8 333.3 545.3 332.4Q543.8 331.5 543.0 329.9Q542.2 328.3 542.2 326.1L542.2 326.1Q542.2 324.0 543.0 322.3Q543.8 320.7 545.3 319.8Q546.7 318.8 548.7 318.8L548.7 318.8Q550.2 318.8 551.6 319.6Q553.1 320.3 554.0 321.8Q554.8 323.3 554.8 325.9L554.8 325.9L554.8 326.8L544.9 326.8Q545.0 328.8 546.0 329.9Q547.1 331.0 548.9 331.0L548.9 331.0Q550.0 331.0 550.9 330.5Q551.7 330.0 552.1 329.0L552.1 329.0L554.7 329.5Q554.2 331.2 552.7 332.2Q551.1 333.3 548.8 333.3ZM544.9 324.8L544.9 324.8L552.2 324.8Q552.2 323.2 551.2 322.1Q550.3 321.1 548.7 321.1L548.7 321.1Q547.6 321.1 546.8 321.6Q545.9 322.1 545.5 323.0Q545.0 323.8 544.9 324.8ZM556.7 319.0L559.7 319.0L562.8 324.5L565.9 319.0L568.9 319.0L564.5 326.0L568.9 333.0L565.9 333.0L562.8 327.8L559.6 333.0L556.7 333.0L561.0 326.0L556.7 319.0ZM575.7 333.3L575.7 333.3Q574.4 333.3 573.3 332.8Q572.2 332.3 571.6 331.4Q571.0 330.4 571.0 329.0L571.0 329.0Q571.0 327.9 571.4 327.1Q571.9 326.3 572.7 325.9Q573.4 325.4 574.4 325.2Q575.3 325.0 576.3 324.9L576.3 324.9Q577.6 324.7 578.4 324.6Q579.1 324.5 579.5 324.3Q579.9 324.1 579.9 323.6L579.9 323.6L579.9 323.5Q579.9 322.4 579.2 321.7Q578.5 321.0 577.2 321.0L577.2 321.0Q575.8 321.0 575.0 321.6Q574.3 322.2 574.0 323.0L574.0 323.0L571.4 322.4Q572.1 320.5 573.7 319.7Q575.3 318.8 577.2 318.8L577.2 318.8Q578.0 318.8 578.9 319.0Q579.9 319.2 580.7 319.8Q581.5 320.3 582.1 321.2Q582.6 322.2 582.6 323.7L582.6 323.7L582.6 333.0L579.9 333.0L579.9 331.1L579.8 331.1Q579.4 331.9 578.4 332.6Q577.4 333.3 575.7 333.3ZM576.3 331.1L576.3 331.1Q577.4 331.1 578.2 330.7Q579.0 330.2 579.4 329.5Q579.9 328.8 579.9 328.0L579.9 328.0L579.9 326.2Q579.7 326.3 579.0 326.5Q578.4 326.6 577.7 326.7Q577.0 326.8 576.5 326.9L576.5 326.9Q575.3 327.1 574.5 327.5Q573.6 328.0 573.6 329.1L573.6 329.1Q573.6 330.1 574.4 330.6Q575.1 331.1 576.3 331.1ZM588.9 333.0L586.2 333.0L586.2 319.0L588.8 319.0L588.8 321.3L589.0 321.3Q589.4 320.1 590.4 319.5Q591.4 318.8 592.8 318.8L592.8 318.8Q594.2 318.8 595.1 319.5Q596.1 320.2 596.5 321.3L596.5 321.3L596.7 321.3Q597.2 320.2 598.3 319.5Q599.4 318.8 600.9 318.8L600.9 318.8Q602.8 318.8 604.0 320.0Q605.2 321.2 605.2 323.6L605.2 323.6L605.2 333.0L602.5 333.0L602.5 323.9Q602.5 322.5 601.7 321.8Q600.9 321.2 599.9 321.2L599.9 321.2Q598.5 321.2 597.8 322.0Q597.1 322.8 597.1 324.1L597.1 324.1L597.1 333.0L594.3 333.0L594.3 323.7Q594.3 322.6 593.6 321.9Q592.9 321.2 591.8 321.2L591.8 321.2Q590.6 321.2 589.8 322.1Q588.9 323.0 588.9 324.4L588.9 324.4L588.9 333.0ZM611.5 338.2L608.8 338.2L608.8 319.0L611.5 319.0L611.5 321.3L611.7 321.3Q612.0 320.9 612.4 320.3Q612.8 319.7 613.6 319.3Q614.4 318.8 615.7 318.8L615.7 318.8Q617.4 318.8 618.7 319.7Q620.1 320.6 620.8 322.2Q621.6 323.8 621.6 326.0L621.6 326.0Q621.6 328.3 620.8 329.9Q620.1 331.5 618.8 332.4Q617.4 333.3 615.7 333.3L615.7 333.3Q614.5 333.3 613.7 332.8Q612.9 332.4 612.4 331.8Q612.0 331.3 611.7 330.8L611.7 330.8L611.5 330.8L611.5 338.2ZM611.5 326.0L611.5 326.0Q611.5 328.2 612.4 329.6Q613.4 330.9 615.1 330.9L615.1 330.9Q616.4 330.9 617.2 330.3Q618 329.6 618.4 328.5Q618.8 327.4 618.8 326.0L618.8 326.0Q618.8 324.6 618.4 323.5Q618.0 322.4 617.2 321.8Q616.4 321.2 615.1 321.2L615.1 321.2Q613.4 321.2 612.4 322.5Q611.5 323.8 611.5 326.0ZM624.6 314.4L627.3 314.4L627.3 333.0L624.6 333.0L624.6 314.4ZM637.0 333.3L637.0 333.3Q635.0 333.3 633.5 332.4Q632.0 331.5 631.2 329.9Q630.4 328.3 630.4 326.1L630.4 326.1Q630.4 324.0 631.2 322.3Q632.0 320.7 633.4 319.8Q634.9 318.8 636.8 318.8L636.8 318.8Q638.4 318.8 639.8 319.6Q641.2 320.3 642.1 321.8Q643.0 323.3 643.0 325.9L643.0 325.9L643.0 326.8L633.1 326.8Q633.1 328.8 634.2 329.9Q635.3 331.0 637.0 331.0L637.0 331.0Q638.2 331.0 639.1 330.5Q639.9 330.0 640.3 329.0L640.3 329.0L642.8 329.5Q642.4 331.2 640.8 332.2Q639.3 333.3 637.0 333.3ZM633.1 324.8L633.1 324.8L640.3 324.8Q640.3 323.2 639.4 322.1Q638.4 321.1 636.8 321.1L636.8 321.1Q635.7 321.1 634.9 321.6Q634.1 322.1 633.6 323.0Q633.1 323.8 633.1 324.8ZM656.5 322.4L656.5 322.4L654.0 322.9Q653.8 322.2 653.2 321.6Q652.5 321.0 651.2 321.0L651.2 321.0Q650.1 321.0 649.3 321.5Q648.5 322.0 648.5 322.8L648.5 322.8Q648.5 323.5 649.1 324.0Q649.6 324.4 650.7 324.7L650.7 324.7L653.0 325.2Q656.8 326.1 656.8 329.0L656.8 329.0Q656.8 330.2 656.0 331.2Q655.3 332.2 654.0 332.7Q652.8 333.3 651.1 333.3L651.1 333.3Q648.7 333.3 647.2 332.3Q645.8 331.3 645.4 329.4L645.4 329.4L648.0 329.0Q648.5 331.1 651.0 331.1L651.0 331.1Q652.4 331.1 653.2 330.5Q654.0 330.0 654.0 329.2L654.0 329.2Q654.0 327.8 652.0 327.4L652.0 327.4L649.6 326.9Q647.7 326.4 646.8 325.4Q645.8 324.5 645.8 323.0L645.8 323.0Q645.8 321.7 646.5 320.8Q647.2 319.9 648.4 319.4Q649.6 318.8 651.2 318.8L651.2 318.8Q653.5 318.8 654.8 319.8Q656.1 320.8 656.5 322.4Z "/><defs><clipPath id="satori_bc-id-0-2-0-0"><rect x="865" y="575" width="98" height="18"/></clipPath></defs><path width="98" height="18" clip-path="url(#satori_bc-id-0-2-0-0)" fill="none" stroke="#a3a3a3" stroke-width="2" d="M963,593 A0,0 0 0 1 963,593 h-98 A0,0 0 0 1 865,593"/><path fill="#737373" d="M867.6 583.8L867.6 583.8L867.6 588.5L866.0 588.5L866.0 578.0L867.5 578.0L867.5 581.9L867.6 581.9Q867.9 581.3 868.5 580.9Q869.0 580.5 870.0 580.5L870.0 580.5Q871.2 580.5 871.9 581.3Q872.6 582.0 872.6 583.5L872.6 583.5L872.6 588.5L871.1 588.5L871.1 583.7Q871.1 582.8 870.7 582.3Q870.2 581.9 869.4 581.9L869.4 581.9Q868.6 581.9 868.1 582.4Q867.6 582.9 867.6 583.8ZM876.8 580.6L878.4 580.6L878.4 581.9L876.8 581.9L876.8 586.2Q876.8 586.9 877.0 587.0Q877.3 587.2 877.7 587.2L877.7 587.2Q877.9 587.2 878.0 587.2Q878.2 587.2 878.2 587.2L878.2 587.2L878.5 588.4Q878.4 588.5 878.1 588.5Q877.9 588.6 877.5 588.6L877.5 588.6Q876.9 588.6 876.4 588.4Q875.9 588.2 875.5 587.7Q875.2 587.2 875.2 586.5L875.2 586.5L875.2 581.9L874.1 581.9L874.1 580.6L875.2 580.6L875.2 578.8L876.8 578.8L876.8 580.6ZM882.1 580.6L883.7 580.6L883.7 581.9L882.1 581.9L882.1 586.2Q882.1 586.9 882.4 587.0Q882.7 587.2 883.0 587.2L883.0 587.2Q883.2 587.2 883.4 587.2Q883.5 587.2 883.6 587.2L883.6 587.2L883.9 588.4Q883.7 588.5 883.5 588.5Q883.2 588.6 882.9 588.6L882.9 588.6Q882.3 588.6 881.7 588.4Q881.2 588.2 880.9 587.7Q880.6 587.2 880.6 586.5L880.6 586.5L880.6 581.9L879.4 581.9L879.4 580.6L880.6 580.6L880.6 578.8L882.1 578.8L882.1 580.6ZM886.9 591.4L885.4 591.4L885.4 580.6L886.9 580.6L886.9 581.9L887.0 581.9Q887.2 581.7 887.4 581.3Q887.7 581.0 888.1 580.8Q888.6 580.5 889.3 580.5L889.3 580.5Q890.2 580.5 891.0 581.0Q891.7 581.5 892.1 582.4Q892.6 583.3 892.6 584.6L892.6 584.6Q892.6 585.9 892.2 586.8Q891.7 587.7 891.0 588.2Q890.2 588.6 889.3 588.6L889.3 588.6Q888.6 588.6 888.1 588.4Q887.7 588.2 887.4 587.8Q887.2 587.5 887.0 587.3L887.0 587.3L886.9 587.3L886.9 591.4ZM886.9 584.6L886.9 584.6Q886.9 585.8 887.4 586.6Q888.0 587.3 889.0 587.3L889.0 587.3Q889.6 587.3 890.1 587.0Q890.6 586.6 890.8 586.0Q891.0 585.4 891.0 584.6L891.0 584.6Q891.0 583.8 890.8 583.2Q890.6 582.6 890.1 582.2Q889.6 581.8 889.0 581.8L889.0 581.8Q888.0 581.8 887.4 582.6Q886.9 583.3 886.9 584.6ZM900.2 582.6L900.2 582.6L898.8 582.8Q898.7 582.4 898.3 582.1Q897.9 581.8 897.2 581.8L897.2 581.8Q896.6 581.8 896.1 582.0Q895.7 582.3 895.7 582.8L895.7 582.8Q895.7 583.2 896.0 583.4Q896.3 583.7 896.9 583.8L896.9 583.8L898.2 584.1Q900.3 584.6 900.3 586.2L900.3 586.2Q900.3 586.9 899.9 587.5Q899.5 588.0 898.8 588.3Q898.1 588.7 897.1 588.7L897.1 588.7Q895.8 588.7 895.0 588.1Q894.1 587.5 893.9 586.5L893.9 586.5L895.4 586.3Q895.7 587.4 897.1 587.4L897.1 587.4Q897.9 587.4 898.3 587.1Q898.8 586.8 898.8 586.3L898.8 586.3Q898.8 585.6 897.7 585.3L897.7 585.3L896.3 585.0Q895.2 584.8 894.7 584.3Q894.2 583.7 894.2 582.9L894.2 582.9Q894.2 582.2 894.6 581.6Q895.0 581.1 895.6 580.8Q896.3 580.5 897.2 580.5L897.2 580.5Q898.5 580.5 899.2 581.1Q899.9 581.6 900.2 582.6ZM903.0 582.9L903.0 582.9Q902.6 582.9 902.3 582.6Q902.0 582.3 902.0 581.9L902.0 581.9Q902.0 581.4 902.3 581.1Q902.6 580.8 903.0 580.8L903.0 580.8Q903.4 580.8 903.7 581.1Q904.0 581.4 904.0 581.9L904.0 581.9Q904.0 582.3 903.7 582.6Q903.4 582.9 903.0 582.9ZM903.0 588.6L903.0 588.6Q902.6 588.6 902.3 588.3Q902.0 588.0 902.0 587.6L902.0 587.6Q902.0 587.2 902.3 586.9Q902.6 586.6 903.0 586.6L903.0 586.6Q903.4 586.6 903.7 586.9Q904.0 587.2 904.0 587.6L904.0 587.6Q904.0 588.0 903.7 588.3Q903.4 588.6 903.0 588.6ZM908.7 577.5L910.1 577.5L906.7 590.1L905.3 590.1L908.7 577.5ZM914.0 577.5L915.4 577.5L912.0 590.1L910.6 590.1L914.0 577.5ZM923.5 591.4L922.0 591.4L922.0 587.3L921.9 587.3Q921.7 587.5 921.5 587.8Q921.2 588.2 920.8 588.4Q920.3 588.6 919.6 588.6L919.6 588.6Q918.7 588.6 917.9 588.2Q917.2 587.7 916.8 586.8Q916.3 585.9 916.3 584.6L916.3 584.6Q916.3 583.3 916.8 582.4Q917.2 581.5 917.9 581.0Q918.7 580.5 919.6 580.5L919.6 580.5Q920.4 580.5 920.8 580.8Q921.2 581.0 921.5 581.3Q921.7 581.7 921.9 581.9L921.9 581.9L922.0 581.9L922.0 580.6L923.5 580.6L923.5 591.4ZM919.9 587.3L919.9 587.3Q920.9 587.3 921.5 586.6Q922.0 585.8 922.0 584.6L922.0 584.6Q922.0 583.3 921.5 582.6Q920.9 581.8 919.9 581.8L919.9 581.8Q919.3 581.8 918.8 582.2Q918.3 582.6 918.1 583.2Q917.9 583.8 917.9 584.6L917.9 584.6Q917.9 585.4 918.1 586.0Q918.3 586.6 918.8 587.0Q919.3 587.3 919.9 587.3ZM927.2 588.5L925.7 588.5L925.7 578.0L927.2 578.0L927.2 581.9L927.3 581.9Q927.4 581.7 927.7 581.3Q927.9 581.0 928.4 580.8Q928.8 580.5 929.6 580.5L929.6 580.5Q930.5 580.5 931.2 581.0Q932.0 581.5 932.4 582.4Q932.9 583.3 932.9 584.6L932.9 584.6Q932.9 585.9 932.4 586.8Q932.0 587.7 931.3 588.2Q930.5 588.6 929.6 588.6L929.6 588.6Q928.9 588.6 928.4 588.4Q928.0 588.2 927.7 587.8Q927.4 587.5 927.3 587.3L927.3 587.3L927.2 587.3L927.2 588.5ZM927.2 584.6L927.2 584.6Q927.2 585.8 927.7 586.6Q928.2 587.3 929.2 587.3L929.2 587.3Q929.9 587.3 930.4 587.0Q930.8 586.6 931.1 586.0Q931.3 585.4 931.3 584.6L931.3 584.6Q931.3 583.8 931.1 583.2Q930.8 582.6 930.4 582.2Q929.9 581.8 929.2 581.8L929.2 581.8Q928.2 581.8 927.7 582.6Q927.2 583.3 927.2 584.6ZM936.2 588.5L934.7 588.5L934.7 578.0L936.2 578.0L936.2 581.9L936.3 581.9Q936.4 581.7 936.7 581.3Q936.9 581.0 937.4 580.8Q937.8 580.5 938.6 580.5L938.6 580.5Q939.5 580.5 940.3 581.0Q941.0 581.5 941.4 582.4Q941.9 583.3 941.9 584.6L941.9 584.6Q941.9 585.9 941.4 586.8Q941.0 587.7 940.3 588.2Q939.5 588.6 938.6 588.6L938.6 588.6Q937.9 588.6 937.4 588.4Q937.0 588.2 936.7 587.8Q936.4 587.5 936.3 587.3L936.3 587.3L936.2 587.3L936.2 588.5ZM936.2 584.6L936.2 584.6Q936.2 585.8 936.7 586.6Q937.3 587.3 938.2 587.3L938.2 587.3Q938.9 587.3 939.4 587.0Q939.8 586.6 940.1 586.0Q940.3 585.4 940.3 584.6L940.3 584.6Q940.3 583.8 940.1 583.2Q939.9 582.6 939.4 582.2Q938.9 581.8 938.2 581.8L938.2 581.8Q937.2 581.8 936.7 582.6Q936.2 583.3 936.2 584.6ZM944.6 588.6L944.6 588.6Q944.2 588.6 943.9 588.3Q943.6 588.0 943.6 587.6L943.6 587.6Q943.6 587.2 943.9 586.9Q944.2 586.6 944.6 586.6L944.6 586.6Q945.0 586.6 945.3 586.9Q945.6 587.2 945.6 587.6L945.6 587.6Q945.6 588.0 945.3 588.3Q945.0 588.6 944.6 588.6ZM953.5 582.6L953.5 582.6L952.2 582.8Q952.0 582.4 951.7 582.1Q951.3 581.8 950.6 581.8L950.6 581.8Q949.9 581.8 949.5 582.0Q949.1 582.3 949.1 582.8L949.1 582.8Q949.1 583.2 949.4 583.4Q949.6 583.7 950.3 583.8L950.3 583.8L951.5 584.1Q953.7 584.6 953.7 586.2L953.7 586.2Q953.7 586.9 953.3 587.5Q952.9 588.0 952.2 588.3Q951.4 588.7 950.5 588.7L950.5 588.7Q949.2 588.7 948.3 588.1Q947.5 587.5 947.3 586.5L947.3 586.5L948.8 586.3Q949.1 587.4 950.5 587.4L950.5 587.4Q951.2 587.4 951.7 587.1Q952.1 586.8 952.1 586.3L952.1 586.3Q952.1 585.6 951.0 585.3L951.0 585.3L949.7 585.0Q948.6 584.8 948.1 584.3Q947.5 583.7 947.5 582.9L947.5 582.9Q947.5 582.2 947.9 581.6Q948.3 581.1 949.0 580.8Q949.7 580.5 950.6 580.5L950.6 580.5Q951.8 580.5 952.6 581.1Q953.3 581.6 953.5 582.6ZM956.9 583.8L956.9 583.8L956.9 588.5L955.4 588.5L955.4 578.0L956.9 578.0L956.9 581.9L957.0 581.9Q957.3 581.3 957.8 580.9Q958.4 580.5 959.3 580.5L959.3 580.5Q960.5 580.5 961.3 581.3Q962.0 582.0 962.0 583.5L962.0 583.5L962.0 588.5L960.5 588.5L960.5 583.7Q960.5 582.8 960.0 582.3Q959.6 581.9 958.8 581.9L958.8 581.9Q958.0 581.9 957.4 582.4Q956.9 582.9 956.9 583.8Z "/><clipPath id="satori_cp-id-0-2-0-1"><rect x="967" y="574" width="20" height="20"/></clipPath><mask id="satori_om-id-0-2-0-1"><rect x="967" y="574" width="20" height="20" fill="#fff"/></mask><image x="967" y="574" width="20" height="20" href="data:image/svg+xml;utf8,%3Csvg  fill=%22white%22 tw=%22mx-1%22 xmlns=%22http://www.w3.org/2000/svg%22 width=%2220%22 height=%2220%22 viewBox=%220 0 32 32%22%3E%3Cpath d=%22M27.562 26L17.17 8.928l2.366-3.888L17.828 4L16 7.005L14.17 4l-1.708 1.04l2.366 3.888L4.438 26H2v2h28v-2ZM16 10.85L25.22 26H17v-8h-2v8H6.78Z%22%3E%3C/path%3E%3C/svg%3E" preserveAspectRatio="none" clip-path="url(#satori_cp-id-0-2-0-1)" mask="url(#satori_om-id-0-2-0-1)"/><path fill="#71717a" d="M993.7 589.5L992.2 589.5L992.2 579.1L995.9 579.1Q997.1 579.1 997.9 579.5Q998.7 580.0 999.1 580.7Q999.5 581.5 999.5 582.5L999.5 582.5Q999.5 583.4 999.1 584.2Q998.7 585.0 997.9 585.4Q997.1 585.9 995.9 585.9L995.9 585.9L993.7 585.9L993.7 589.5ZM993.7 580.4L993.7 584.5L995.7 584.5Q996.9 584.5 997.4 583.9Q997.9 583.3 997.9 582.5L997.9 582.5Q997.9 581.6 997.4 581.0Q996.9 580.4 995.7 580.4L995.7 580.4L993.7 580.4ZM1004.4 589.7L1004.4 589.7Q1003.3 589.7 1002.5 589.2Q1001.7 588.7 1001.2 587.8Q1000.8 586.9 1000.8 585.6L1000.8 585.6Q1000.8 584.4 1001.2 583.5Q1001.7 582.6 1002.5 582.1Q1003.3 581.6 1004.4 581.6L1004.4 581.6Q1005.6 581.6 1006.4 582.1Q1007.2 582.6 1007.6 583.5Q1008.1 584.4 1008.1 585.6L1008.1 585.6Q1008.1 586.9 1007.6 587.8Q1007.2 588.7 1006.4 589.2Q1005.6 589.7 1004.4 589.7ZM1004.4 588.4L1004.4 588.4Q1005.2 588.4 1005.6 588.0Q1006.1 587.7 1006.3 587.0Q1006.6 586.4 1006.6 585.6L1006.6 585.6Q1006.6 584.9 1006.3 584.3Q1006.1 583.6 1005.6 583.2Q1005.2 582.9 1004.4 582.9L1004.4 582.9Q1003.7 582.9 1003.3 583.2Q1002.8 583.6 1002.6 584.3Q1002.3 584.9 1002.3 585.6L1002.3 585.6Q1002.3 586.4 1002.6 587.0Q1002.8 587.7 1003.3 588.0Q1003.7 588.4 1004.4 588.4ZM1012.8 589.5L1011.3 589.5L1009.0 581.7L1010.5 581.7L1012.1 587.5L1012.2 587.5L1013.7 581.7L1015.3 581.7L1016.8 587.4L1016.9 587.4L1018.4 581.7L1020.0 581.7L1017.7 589.5L1016.1 589.5L1014.5 583.9L1014.4 583.9L1012.8 589.5ZM1024.6 589.7L1024.6 589.7Q1023.4 589.7 1022.6 589.2Q1021.8 588.7 1021.3 587.8Q1020.9 586.9 1020.9 585.7L1020.9 585.7Q1020.9 584.5 1021.3 583.5Q1021.8 582.6 1022.6 582.1Q1023.4 581.6 1024.5 581.6L1024.5 581.6Q1025.4 581.6 1026.2 582.0Q1027.0 582.4 1027.5 583.2Q1028.0 584.1 1028.0 585.5L1028.0 585.5L1028.0 586.1L1022.4 586.1Q1022.4 587.2 1023.0 587.8Q1023.6 588.4 1024.6 588.4L1024.6 588.4Q1025.3 588.4 1025.7 588.2Q1026.2 587.9 1026.4 587.3L1026.4 587.3L1027.9 587.6Q1027.6 588.5 1026.7 589.1Q1025.9 589.7 1024.6 589.7ZM1022.4 584.9L1022.4 584.9L1026.5 584.9Q1026.5 584.0 1025.9 583.4Q1025.4 582.8 1024.5 582.8L1024.5 582.8Q1023.9 582.8 1023.4 583.1Q1022.9 583.4 1022.7 583.9Q1022.4 584.4 1022.4 584.9ZM1031.2 589.5L1029.7 589.5L1029.7 581.7L1031.1 581.7L1031.1 582.9L1031.2 582.9Q1031.4 582.3 1032.0 581.9Q1032.5 581.6 1033.2 581.6L1033.2 581.6Q1033.4 581.6 1033.6 581.6Q1033.8 581.6 1033.9 581.6L1033.9 581.6L1033.9 583.1Q1033.8 583.0 1033.5 583.0Q1033.3 583.0 1033.1 583.0L1033.1 583.0Q1032.3 583.0 1031.7 583.5Q1031.2 584.0 1031.2 584.7L1031.2 584.7L1031.2 589.5ZM1038.3 589.7L1038.3 589.7Q1037.1 589.7 1036.3 589.2Q1035.5 588.7 1035.0 587.8Q1034.6 586.9 1034.6 585.7L1034.6 585.7Q1034.6 584.5 1035.0 583.5Q1035.5 582.6 1036.3 582.1Q1037.1 581.6 1038.2 581.6L1038.2 581.6Q1039.1 581.6 1039.9 582.0Q1040.7 582.4 1041.2 583.2Q1041.7 584.1 1041.7 585.5L1041.7 585.5L1041.7 586.1L1036.1 586.1Q1036.1 587.2 1036.7 587.8Q1037.3 588.4 1038.3 588.4L1038.3 588.4Q1039.0 588.4 1039.4 588.2Q1039.9 587.9 1040.1 587.3L1040.1 587.3L1041.6 587.6Q1041.3 588.5 1040.4 589.1Q1039.6 589.7 1038.3 589.7ZM1036.1 584.9L1036.1 584.9L1040.2 584.9Q1040.2 584.0 1039.6 583.4Q1039.1 582.8 1038.2 582.8L1038.2 582.8Q1037.6 582.8 1037.1 583.1Q1036.7 583.4 1036.4 583.9Q1036.1 584.4 1036.1 584.9ZM1046.3 589.7L1046.3 589.7Q1045.4 589.7 1044.6 589.2Q1043.9 588.7 1043.5 587.8Q1043.0 586.9 1043.0 585.6L1043.0 585.6Q1043.0 584.4 1043.5 583.5Q1043.9 582.5 1044.6 582.1Q1045.4 581.6 1046.3 581.6L1046.3 581.6Q1047.1 581.6 1047.5 581.8Q1047.9 582.1 1048.2 582.4Q1048.4 582.7 1048.6 583.0L1048.6 583.0L1048.7 583.0L1048.7 579.1L1050.2 579.1L1050.2 589.5L1048.7 589.5L1048.7 588.3L1048.6 588.3Q1048.4 588.6 1048.2 588.9Q1047.9 589.2 1047.5 589.5Q1047.0 589.7 1046.3 589.7ZM1046.6 588.4L1046.6 588.4Q1047.6 588.4 1048.2 587.6Q1048.7 586.9 1048.7 585.6L1048.7 585.6Q1048.7 584.4 1048.2 583.6Q1047.6 582.9 1046.6 582.9L1046.6 582.9Q1046.0 582.9 1045.5 583.2Q1045.0 583.6 1044.8 584.2Q1044.6 584.8 1044.6 585.6L1044.6 585.6Q1044.6 586.4 1044.8 587.0Q1045.0 587.7 1045.5 588.0Q1046.0 588.4 1046.6 588.4ZM1057.8 589.5L1056.3 589.5L1056.3 579.1L1057.8 579.1L1057.8 583.0L1057.9 583.0Q1058.1 582.7 1058.3 582.4Q1058.6 582.1 1059.0 581.8Q1059.5 581.6 1060.2 581.6L1060.2 581.6Q1061.1 581.6 1061.9 582.1Q1062.6 582.5 1063.1 583.5Q1063.5 584.4 1063.5 585.6L1063.5 585.6Q1063.5 586.9 1063.1 587.8Q1062.6 588.7 1061.9 589.2Q1061.2 589.7 1060.2 589.7L1060.2 589.7Q1059.5 589.7 1059.0 589.5Q1058.6 589.2 1058.3 588.9Q1058.1 588.6 1057.9 588.3L1057.9 588.3L1057.8 588.3L1057.8 589.5ZM1057.8 585.6L1057.8 585.6Q1057.8 586.9 1058.3 587.6Q1058.9 588.4 1059.9 588.4L1059.9 588.4Q1060.6 588.4 1061.0 588.0Q1061.5 587.7 1061.7 587.0Q1061.9 586.4 1061.9 585.6L1061.9 585.6Q1061.9 584.8 1061.7 584.2Q1061.5 583.6 1061.0 583.2Q1060.6 582.9 1059.9 582.9L1059.9 582.9Q1058.9 582.9 1058.3 583.6Q1057.8 584.4 1057.8 585.6ZM1065.9 592.5L1065.9 592.5Q1065.6 592.5 1065.3 592.4Q1065.0 592.4 1064.9 592.3L1064.9 592.3L1065.2 591.1Q1065.8 591.2 1066.3 591.1Q1066.7 590.9 1067.0 590.2L1067.0 590.2L1067.2 589.6L1064.3 581.7L1065.9 581.7L1067.9 587.8L1068.0 587.8L1070.0 581.7L1071.6 581.7L1068.4 590.6Q1068.1 591.5 1067.5 592.0Q1066.8 592.5 1065.9 592.5ZM1076.2 579.1L1077.9 579.1L1080.9 587.6L1081.0 587.6L1083.9 579.1L1085.6 579.1L1081.8 589.5L1080.0 589.5L1076.2 579.1ZM1088.5 589.5L1087.0 589.5L1087.0 581.7L1088.5 581.7L1088.5 589.5ZM1087.8 580.5L1087.8 580.5Q1087.4 580.5 1087.1 580.2Q1086.8 579.9 1086.8 579.6L1086.8 579.6Q1086.8 579.2 1087.1 578.9Q1087.4 578.6 1087.8 578.6L1087.8 578.6Q1088.1 578.6 1088.4 578.9Q1088.7 579.2 1088.7 579.6L1088.7 579.6Q1088.7 579.9 1088.4 580.2Q1088.1 580.5 1087.8 580.5ZM1092.6 581.7L1094.2 581.7L1094.2 582.9L1092.6 582.9L1092.6 587.2Q1092.6 587.9 1092.9 588.1Q1093.2 588.3 1093.6 588.3L1093.6 588.3Q1093.7 588.3 1093.9 588.3Q1094.0 588.2 1094.1 588.2L1094.1 588.2L1094.4 589.5Q1094.2 589.5 1094.0 589.6Q1093.7 589.6 1093.4 589.6L1093.4 589.6Q1092.8 589.7 1092.3 589.4Q1091.7 589.2 1091.4 588.7Q1091.1 588.3 1091.1 587.6L1091.1 587.6L1091.1 582.9L1089.9 582.9L1089.9 581.7L1091.1 581.7L1091.1 579.8L1092.6 579.8L1092.6 581.7ZM1099.2 589.7L1099.2 589.7Q1098.1 589.7 1097.2 589.2Q1096.4 588.7 1095.9 587.8Q1095.5 586.9 1095.5 585.7L1095.5 585.7Q1095.5 584.5 1095.9 583.5Q1096.4 582.6 1097.2 582.1Q1098.0 581.6 1099.1 581.6L1099.1 581.6Q1100.0 581.6 1100.8 582.0Q1101.6 582.4 1102.1 583.2Q1102.6 584.1 1102.6 585.5L1102.6 585.5L1102.6 586.1L1097.0 586.1Q1097.0 587.2 1097.6 587.8Q1098.3 588.4 1099.2 588.4L1099.2 588.4Q1099.9 588.4 1100.4 588.2Q1100.8 587.9 1101.0 587.3L1101.0 587.3L1102.5 587.6Q1102.2 588.5 1101.4 589.1Q1100.5 589.7 1099.2 589.7ZM1097.0 584.9L1097.0 584.9L1101.1 584.9Q1101.1 584.0 1100.5 583.4Q1100.0 582.8 1099.1 582.8L1099.1 582.8Q1098.5 582.8 1098.0 583.1Q1097.6 583.4 1097.3 583.9Q1097.0 584.4 1097.0 584.9ZM1110.2 583.6L1110.2 583.6L1108.8 583.8Q1108.7 583.5 1108.3 583.1Q1107.9 582.8 1107.2 582.8L1107.2 582.8Q1106.6 582.8 1106.1 583.1Q1105.7 583.4 1105.7 583.8L1105.7 583.8Q1105.7 584.2 1106.0 584.5Q1106.3 584.7 1106.9 584.9L1106.9 584.9L1108.2 585.1Q1110.3 585.6 1110.3 587.3L1110.3 587.3Q1110.3 588.0 1109.9 588.5Q1109.5 589.1 1108.8 589.4Q1108.1 589.7 1107.1 589.7L1107.1 589.7Q1105.8 589.7 1105.0 589.1Q1104.1 588.6 1103.9 587.5L1103.9 587.5L1105.4 587.3Q1105.7 588.5 1107.1 588.5L1107.1 588.5Q1107.9 588.5 1108.3 588.2Q1108.8 587.8 1108.8 587.4L1108.8 587.4Q1108.8 586.6 1107.7 586.4L1107.7 586.4L1106.3 586.1Q1105.2 585.8 1104.7 585.3Q1104.2 584.7 1104.2 583.9L1104.2 583.9Q1104.2 583.2 1104.6 582.7Q1105.0 582.2 1105.6 581.9Q1106.3 581.6 1107.2 581.6L1107.2 581.6Q1108.5 581.6 1109.2 582.1Q1109.9 582.7 1110.2 583.6ZM1117.9 583.6L1117.9 583.6L1116.5 583.8Q1116.4 583.5 1116.0 583.1Q1115.7 582.8 1114.9 582.8L1114.9 582.8Q1114.3 582.8 1113.9 583.1Q1113.4 583.4 1113.4 583.8L1113.4 583.8Q1113.4 584.2 1113.7 584.5Q1114.0 584.7 1114.7 584.9L1114.7 584.9L1115.9 585.1Q1118.0 585.6 1118.0 587.3L1118.0 587.3Q1118.0 588.0 1117.6 588.5Q1117.2 589.1 1116.5 589.4Q1115.8 589.7 1114.8 589.7L1114.8 589.7Q1113.5 589.7 1112.7 589.1Q1111.9 588.6 1111.7 587.5L1111.7 587.5L1113.1 587.3Q1113.4 588.5 1114.8 588.5L1114.8 588.5Q1115.6 588.5 1116.0 588.2Q1116.5 587.8 1116.5 587.4L1116.5 587.4Q1116.5 586.6 1115.4 586.4L1115.4 586.4L1114.0 586.1Q1112.9 585.8 1112.4 585.3Q1111.9 584.7 1111.9 583.9L1111.9 583.9Q1111.9 583.2 1112.3 582.7Q1112.7 582.2 1113.4 581.9Q1114.0 581.6 1114.9 581.6L1114.9 581.6Q1116.2 581.6 1116.9 582.1Q1117.7 582.7 1117.9 583.6ZM1123.1 589.7L1123.1 589.7Q1122.0 589.7 1121.1 589.2Q1120.3 588.7 1119.8 587.8Q1119.4 586.9 1119.4 585.7L1119.4 585.7Q1119.4 584.5 1119.8 583.5Q1120.3 582.6 1121.1 582.1Q1121.9 581.6 1123.0 581.6L1123.0 581.6Q1123.9 581.6 1124.7 582.0Q1125.5 582.4 1126.0 583.2Q1126.5 584.1 1126.5 585.5L1126.5 585.5L1126.5 586.1L1120.9 586.1Q1120.9 587.2 1121.5 587.8Q1122.1 588.4 1123.1 588.4L1123.1 588.4Q1123.8 588.4 1124.3 588.2Q1124.7 587.9 1124.9 587.3L1124.9 587.3L1126.4 587.6Q1126.1 588.5 1125.3 589.1Q1124.4 589.7 1123.1 589.7ZM1120.9 584.9L1120.9 584.9L1125.0 584.9Q1125.0 584.0 1124.4 583.4Q1123.9 582.8 1123.0 582.8L1123.0 582.8Q1122.4 582.8 1121.9 583.1Q1121.5 583.4 1121.2 583.9Q1120.9 584.4 1120.9 584.9ZM1133.3 591.5L1133.0 591.5Q1132.9 591.5 1132.9 591.5L1132.9 591.5L1132.6 591.1Q1132.7 591.0 1132.7 590.9L1132.7 590.9Q1132.7 590.8 1132.7 590.8L1132.7 590.8Q1132.6 590.8 1132.5 590.9L1132.5 590.9Q1132.4 591.0 1132.3 591.0L1132.3 591.0Q1132.2 590.9 1132.2 590.9L1132.2 590.9L1132.3 590.7Q1132.3 590.7 1132.2 590.7L1132.2 590.7L1132.1 590.7L1132.0 590.7Q1132.0 590.7 1132.0 590.7L1132.0 590.7L1132.0 590.4Q1132.0 590.3 1132.0 590.2Q1131.9 590.1 1131.9 590.1L1131.9 590.1L1131.7 590.1Q1131.7 590.0 1131.8 589.9Q1131.8 589.8 1131.8 589.7L1131.8 589.7Q1131.8 589.6 1131.8 589.5Q1131.8 589.4 1131.7 589.2L1131.7 589.2Q1131.9 588.7 1132.6 587.9Q1133.2 587.2 1134.3 586.0L1134.3 586.0Q1133.6 584.5 1132.8 582.5L1132.8 582.5L1132.8 582.5Q1132.7 582.4 1132.7 582.2Q1132.6 582.1 1132.6 581.9Q1132.5 581.7 1132.5 581.7L1132.5 581.7Q1132.5 581.6 1132.5 581.6L1132.5 581.6Q1132.6 581.6 1132.7 581.6Q1132.9 581.5 1132.9 581.4L1132.9 581.4Q1132.9 581.3 1133.0 581.2Q1133.1 581.1 1133.2 581.1L1133.2 581.1Q1133.2 581.1 1133.3 581.1L1133.3 581.1Q1133.3 581.2 1133.4 581.2Q1133.4 581.2 1133.5 581.2L1133.5 581.2L1133.5 581.2Q1133.6 581.1 1133.7 580.8L1133.7 580.8Q1133.8 580.9 1133.9 580.9L1133.9 580.9L1133.9 580.9Q1134.0 580.8 1134.0 580.8L1134.0 580.8Q1134.0 580.7 1134.1 580.7L1134.1 580.7L1134.1 580.7Q1134.2 580.8 1134.4 581.1Q1134.6 581.4 1134.9 581.8Q1135.2 582.1 1135.3 582.4L1135.3 582.4Q1135.5 582.7 1135.7 583.0Q1135.9 583.4 1136.3 583.8L1136.3 583.8Q1137.2 582.8 1137.7 582.2Q1138.3 581.7 1138.4 581.5L1138.4 581.5Q1138.6 581.3 1138.8 581.2Q1138.9 581.0 1139.1 580.9L1139.1 580.9Q1139.4 580.6 1139.5 580.4L1139.5 580.4L1140.1 580.0L1140.1 580.1Q1140.3 580.2 1140.3 580.3L1140.3 580.3L1140.4 580.4L1140.6 580.5L1140.5 580.7Q1140.5 580.7 1140.6 580.9Q1140.7 581.1 1140.7 581.1L1140.7 581.1Q1140.8 581.1 1140.9 581.1L1140.9 581.1Q1140.9 581.0 1141.1 581.0L1141.1 581.0L1141.2 581.0L1141.1 581.2L1141.2 581.3L1141.3 581.5Q1141.3 581.7 1141.1 581.8L1141.1 581.8L1141.2 582.0L1139.6 583.5Q1139.3 583.9 1138.8 584.4Q1138.3 585.0 1137.6 585.8L1137.6 585.8Q1138.5 586.9 1139.0 587.5Q1139.5 588.2 1139.6 588.3L1139.6 588.3Q1139.9 588.7 1139.9 588.8L1139.9 588.8Q1139.9 588.9 1139.8 589.1Q1139.7 589.3 1139.6 589.5Q1139.5 589.6 1139.5 589.6L1139.5 589.6L1139.0 589.7L1139.1 590.1L1139.1 590.1Q1139.0 590.1 1138.9 590.1L1138.9 590.1L1138.9 590.1Q1138.7 590.1 1138.7 590.3L1138.7 590.3Q1138.6 590.4 1138.5 590.4L1138.5 590.4Q1138.4 590.4 1138.3 590.4L1138.3 590.4Q1138.3 590.3 1138.1 590.3L1138.1 590.3Q1138.0 590.3 1138.0 590.3L1138.0 590.3L1138.0 590.4Q1138.0 590.5 1137.9 590.6Q1137.9 590.7 1137.9 590.7L1137.9 590.7Q1137.9 590.8 1137.8 590.8L1137.8 590.8L1137.7 590.8Q1137.7 590.8 1137.6 590.8Q1137.5 590.7 1137.4 590.7L1137.4 590.7Q1136.9 590.2 1135.6 588.2L1135.6 588.2L1134.9 589.1Q1134.5 589.7 1134.2 590.1Q1133.9 590.4 1133.9 590.5L1133.9 590.5L1133.7 590.8Q1133.3 591.5 1133.3 591.5L1133.3 591.5ZM1156.1 584.3L1156.1 584.3Q1156.1 585.8 1155.6 586.9Q1155.1 588.0 1154.3 588.6L1154.3 588.6L1155.7 590.5L1154.1 590.5L1153.2 589.3Q1152.4 589.7 1151.3 589.7L1151.3 589.7Q1150.0 589.7 1148.9 589.0Q1147.9 588.4 1147.2 587.2Q1146.6 586.0 1146.6 584.3L1146.6 584.3Q1146.6 582.6 1147.2 581.4Q1147.9 580.2 1148.9 579.6Q1150.0 578.9 1151.3 578.9L1151.3 578.9Q1152.7 578.9 1153.8 579.6Q1154.8 580.2 1155.4 581.4Q1156.1 582.6 1156.1 584.3ZM1152.3 588.1L1150.8 586.1L1152.4 586.1L1153.4 587.5Q1153.9 587.0 1154.2 586.2Q1154.5 585.4 1154.5 584.3L1154.5 584.3Q1154.5 583.0 1154.1 582.1Q1153.7 581.3 1153.0 580.8Q1152.2 580.4 1151.3 580.4L1151.3 580.4Q1150.4 580.4 1149.7 580.8Q1149.0 581.3 1148.6 582.1Q1148.2 583.0 1148.2 584.3L1148.2 584.3Q1148.2 585.6 1148.6 586.5Q1149.0 587.3 1149.7 587.8Q1150.4 588.2 1151.3 588.2L1151.3 588.2Q1151.9 588.2 1152.3 588.1L1152.3 588.1ZM1162.0 589.5L1158.0 589.5L1158.0 579.1L1161.9 579.1Q1163.0 579.1 1163.7 579.4Q1164.4 579.8 1164.8 580.4Q1165.2 581.0 1165.2 581.8L1165.2 581.8Q1165.2 582.8 1164.6 583.3Q1164.1 583.8 1163.4 584.0L1163.4 584.0L1163.4 584.1Q1163.9 584.2 1164.4 584.5Q1164.9 584.8 1165.3 585.3Q1165.6 585.9 1165.6 586.7L1165.6 586.7Q1165.6 587.5 1165.2 588.2Q1164.8 588.8 1164.0 589.2Q1163.3 589.5 1162.0 589.5L1162.0 589.5ZM1159.6 584.8L1159.6 588.2L1161.9 588.2Q1163.0 588.2 1163.5 587.7Q1164.0 587.3 1164.0 586.6L1164.0 586.6Q1164.0 585.9 1163.5 585.4Q1162.9 584.8 1161.9 584.8L1161.9 584.8L1159.6 584.8ZM1159.6 580.4L1159.6 583.6L1161.7 583.6Q1162.5 583.6 1163.1 583.1Q1163.6 582.7 1163.6 581.9L1163.6 581.9Q1163.6 581.3 1163.2 580.9Q1162.7 580.4 1161.8 580.4L1161.8 580.4L1159.6 580.4Z "/></svg>