<svg width="1200" height="628" viewBox="0 0 1200 628" xmlns="http://www.w3.org/2000/svg"><mask id="satori_om-id"><rect x="0" y="0" width="1200" height="628" fill="#fff"/></mask><mask id="satori_om-id-0"><rect x="0" y="0" width="1200" height="628" fill="#fff"/></mask><mask id="satori_om-id-0-0"><rect x="509" y="28" width="182" height="41" fill="#fff"/></mask><path fill="#fff" d="M516.1 50.0L516.1 50.0L516.1 60.5L511.0 60.5L511.0 36.1L516.0 36.1L516.0 45.5L516.2 45.5Q516.8 43.8 518.2 42.9Q519.6 42.0 521.7 42.0L521.7 42.0Q524.5 42.0 526.3 43.8Q528.0 45.7 528.0 48.9L528.0 48.9L528.0 60.5L522.9 60.5L522.9 49.8Q522.9 48.1 522.1 47.2Q521.2 46.2 519.6 46.2L519.6 46.2Q518.1 46.2 517.1 47.2Q516.1 48.2 516.1 50.0ZM540.4 60.9L540.4 60.9Q537.5 60.9 535.5 59.8Q533.5 58.6 532.4 56.5Q531.3 54.4 531.3 51.5L531.3 51.5Q531.3 48.6 532.4 46.5Q533.5 44.4 535.5 43.2Q537.5 42.0 540.2 42.0L540.2 42.0Q542.6 42.0 544.5 43.0Q546.5 44.0 547.6 46.1Q548.8 48.2 548.8 51.3L548.8 51.3L548.8 52.7L536.3 52.7L536.3 52.7Q536.3 54.8 537.4 55.9Q538.5 57.1 540.4 57.1L540.4 57.1Q541.7 57.1 542.6 56.6Q543.6 56.0 544.0 55.0L544.0 55.0L548.7 55.3Q548.1 57.9 545.9 59.4Q543.8 60.9 540.4 60.9ZM536.3 49.5L536.3 49.5L544.0 49.5Q544.0 47.9 542.9 46.8Q541.9 45.8 540.2 45.8L540.2 45.8Q538.5 45.8 537.5 46.9Q536.4 48.0 536.3 49.5ZM552.1 36.1L557.2 36.1L557.2 60.5L552.1 60.5L552.1 36.1ZM561.2 36.1L566.3 36.1L566.3 60.5L561.2 60.5L561.2 36.1ZM578.6 60.9L578.6 60.9Q575.9 60.9 573.8 59.7Q571.8 58.5 570.7 56.4Q569.6 54.3 569.6 51.5L569.6 51.5Q569.6 48.6 570.7 46.5Q571.8 44.4 573.8 43.2Q575.9 42.0 578.6 42.0L578.6 42.0Q581.4 42.0 583.4 43.2Q585.5 44.4 586.6 46.5Q587.7 48.6 587.7 51.5L587.7 51.5Q587.7 54.3 586.6 56.4Q585.5 58.5 583.4 59.7Q581.4 60.9 578.6 60.9ZM578.7 57.0L578.7 57.0Q580.6 57.0 581.5 55.4Q582.5 53.8 582.5 51.4L582.5 51.4Q582.5 49.0 581.5 47.4Q580.6 45.9 578.7 45.9L578.7 45.9Q576.7 45.9 575.8 47.4Q574.8 49.0 574.8 51.4L574.8 51.4Q574.8 53.8 575.8 55.4Q576.7 57.0 578.7 57.0Z M607.8 60.5L602.4 60.5L597.4 42.2L602.5 42.2L605.4 54.5L605.6 54.5L608.5 42.2L613.6 42.2L616.6 54.5L616.7 54.5L619.5 42.2L624.6 42.2L619.7 60.5L614.3 60.5L611.1 49.0L610.9 49.0L607.8 60.5ZM635.2 60.9L635.2 60.9Q632.4 60.9 630.4 59.7Q628.3 58.5 627.2 56.4Q626.1 54.3 626.1 51.5L626.1 51.5Q626.1 48.6 627.2 46.5Q628.3 44.4 630.4 43.2Q632.4 42.0 635.2 42.0L635.2 42.0Q637.9 42.0 640.0 43.2Q642.0 44.4 643.1 46.5Q644.2 48.6 644.2 51.5L644.2 51.5Q644.2 54.3 643.1 56.4Q642.0 58.5 640.0 59.7Q637.9 60.9 635.2 60.9ZM635.2 57.0L635.2 57.0Q637.1 57.0 638.0 55.4Q639.0 53.8 639.0 51.4L639.0 51.4Q639.0 49.0 638.0 47.4Q637.1 45.9 635.2 45.9L635.2 45.9Q633.3 45.9 632.3 47.4Q631.3 49.0 631.3 51.4L631.3 51.4Q631.3 53.8 632.3 55.4Q633.3 57.0 635.2 57.0ZM652.6 60.5L647.5 60.5L647.5 42.2L652.4 42.2L652.4 45.4L652.6 45.4Q653.1 43.7 654.3 42.8Q655.5 42.0 657.0 42.0L657.0 42.0Q657.9 42.0 658.6 42.1L658.6 42.1L658.6 46.6Q658.3 46.5 657.6 46.5Q657.0 46.4 656.5 46.4L656.5 46.4Q654.8 46.4 653.7 47.4Q652.6 48.5 652.6 50.2L652.6 50.2L652.6 60.5ZM661.2 36.1L666.3 36.1L666.3 60.5L661.2 60.5L661.2 36.1ZM677.1 60.8L677.1 60.8Q675.0 60.8 673.4 59.8Q671.7 58.7 670.7 56.6Q669.7 54.5 669.7 51.4L669.7 51.4Q669.7 48.3 670.7 46.2Q671.7 44.1 673.4 43.0Q675.1 42.0 677.1 42.0L677.1 42.0Q678.7 42.0 679.7 42.5Q680.7 43.0 681.4 43.8Q682.0 44.5 682.3 45.3L682.3 45.3L682.5 45.3L682.5 36.1L687.6 36.1L687.6 60.5L682.5 60.5L682.5 57.6L682.3 57.6Q682.0 58.4 681.3 59.1Q680.7 59.9 679.6 60.4Q678.6 60.8 677.1 60.8ZM678.7 56.8L678.7 56.8Q680.6 56.8 681.6 55.3Q682.6 53.8 682.6 51.4L682.6 51.4Q682.6 48.9 681.6 47.5Q680.6 46.0 678.7 46.0L678.7 46.0Q676.9 46.0 675.9 47.5Q674.9 49 674.9 51.4L674.9 51.4Q674.9 53.8 675.9 55.3Q676.9 56.8 678.7 56.8Z "/></svg>