<svg width="1200" height="628" viewBox="0 0 1200 628" xmlns="http://www.w3.org/2000/svg"><mask id="satori_om-id"><rect x="0" y="0" width="1200" height="628" fill="#fff"/></mask><defs><pattern id="satori_pattern_id-0_0" x="0" y="0" width="1" height="1" patternUnits="objectBoundingBox"><linearGradient id="satori_biid-0_0" x1="0" y1="0" x2="1.1958237751746639" y2="0.6258144423414063"><stop offset="0%" stop-color="rgb(27,26,28)"/><stop offset="10%" stop-color="rgb(6,6,7)"/><stop offset="50%" stop-color="rgb(25,95,60)"/><stop offset="80%" stop-color="rgb(16,15,16)"/><stop offset="100%" stop-color="rgb(16,15,16)"/></linearGradient><rect x="0" y="0" width="1200" height="628" fill="url(#satori_biid-0_0)"/></pattern></defs><mask id="satori_om-id-0"><rect x="0" y="0" width="1200" height="628" fill="#fff"/></mask><rect x="0" y="0" width="1200" height="628" fill="url(#satori_pattern_id-0_0)"/><mask id="satori_om-id-0-0"><rect x="32" y="32" width="1136" height="72" fill="#fff"/></mask><clipPath id="satori_cp-id-0-0-0"><rect x="32" y="32" width="72" height="72"/></clipPath><mask id="satori_om-id-0-0-0"><rect x="32" y="32" width="72" height="72" fill="#fff"/></mask><image x="32" y="32" width="72" height="72" href="data:image/svg+xml;utf8,%3Csvg  xmlns=%22http://www.w3.org/2000/svg%22 width=%2272%22 height=%2272%22 viewBox=%220 0 24 24%22%3E%3Cdefs%3E%3ClinearGradient id=%22b%22 gradientUnits=%22userSpaceOnUse%22 x1=%2219.78%22 x2=%2210.749%22 y1=%2211.04%22 y2=%2220.16%22%3E%3Cstop offset=%220%22 stop-color=%22%23fff%22%3E%3C/stop%3E%3Cstop offset=%221%22 stop-color=%22%23ababab%22%3E%3C/stop%3E%3C/linearGradient%3E%3ClinearGradient id=%22d%22 gradientUnits=%22userSpaceOnUse%22 x1=%2213.669%22 x2=%227.911%22 y1=%222.441%22 y2=%2219.191%22%3E%3Cstop offset=%220%22 stop-color=%22%23fff%22%3E%3C/stop%3E%3Cstop offset=%221%22 stop-color=%22%23ababab%22%3E%3C/stop%3E%3C/linearGradient%3E%3CclipPath id=%22a%22%3E%3Cpath d=%22M6.621 6.548h16.145v19H6.621z%22%3E%3C/path%3E%3C/clipPath%3E%3CclipPath id=%22c%22%3E%3Cpath d=%22M0-4.236h15.108v30H0z%22%3E%3C/path%3E%3C/clipPath%3E%3C/defs%3E%3Cpath clip-path=%22url(%23a)%22 d=%22M15.105 12.55c.019.115.04.266.065.453.024.188.036.382.036.583 0 .442-.063.867-.188 1.275a3.145 3.145 0 0 1-.568 1.08c-.255.312-.57.56-.944.742-.374.182-.81.273-1.31.273-.365 0-.691-.06-.98-.18a2.018 2.018 0 0 1-.726-.504 2.242 2.242 0 0 1-.454-.77 2.909 2.909 0 0 1-.158-.98c0-.527.11-1.027.33-1.497.222-.47.52-.902.894-1.296a7.225 7.225 0 0 1 1.303-1.073 9.111 9.111 0 0 1 1.562-.814 9.933 9.933 0 0 1 1.678-.51 7.955 7.955 0 0 1 1.634-.18 8.9 8.9 0 0 1 1.8.172 9.242 9.242 0 0 1 1.642.504c.374-.163.756-.312 1.145-.446.388-.135.79-.211 1.202-.23l.029.086c-.135 0-.298.024-.49.072a5.368 5.368 0 0 0-1.138.44c-.172.09-.302.179-.388.265.365.211.657.483.878.814.221.331.331.713.331 1.145 0 .412-.103.765-.31 1.058a2.706 2.706 0 0 1-.777.735 4.13 4.13 0 0 1-1.022.46 9.04 9.04 0 0 1-1.059.252l-.014.03c.298.037.588.083.871.136.283.053.538.142.763.266.226.125.406.3.54.526.135.226.202.526.202.9a3.02 3.02 0 0 1-.338 1.433c-.226.427-.526.79-.9 1.087a4.143 4.143 0 0 1-1.268.684c-.47.158-.95.238-1.44.238a2.54 2.54 0 0 1-.619-.08 1.949 1.949 0 0 1-.569-.237 1.394 1.394 0 0 1-.417-.404 1.003 1.003 0 0 1-.166-.575.91.91 0 0 1 .26-.649.84.84 0 0 1 .633-.273c.288 0 .542.096.763.288a1.11 1.11 0 0 0-.425.432 1.215 1.215 0 0 0-.136.576c0 .25.067.437.201.562.135.124.327.187.576.187a1.8 1.8 0 0 0 1.023-.31c.307-.206.566-.465.777-.777.211-.313.375-.656.49-1.03.115-.375.173-.73.173-1.066 0-.633-.166-1.096-.497-1.39-.331-.292-.843-.438-1.534-.438l.015-.116a4.18 4.18 0 0 0 1.05-.194 3.09 3.09 0 0 0 .93-.475c.273-.207.496-.466.67-.778.172-.312.258-.684.258-1.116 0-.269-.048-.526-.144-.77a1.622 1.622 0 0 0-.46-.641 5.97 5.97 0 0 0-1.296 1.483c-.384.605-.766 1.25-1.145 1.937-.38.686-.775 1.377-1.188 2.073a10.54 10.54 0 0 1-1.419 1.887 6.595 6.595 0 0 1-1.85 1.368c-.7.35-1.526.526-2.477.526-.307 0-.607-.041-.9-.123a2.61 2.61 0 0 1-.785-.36 1.969 1.969 0 0 1-.561-.583 1.463 1.463 0 0 1-.216-.792c0-.279.074-.518.223-.72.149-.202.377-.303.684-.303.22 0 .396.068.526.202s.194.302.194.504a.654.654 0 0 1-.173.46c-.115.126-.23.198-.345.217a.768.768 0 0 0-.015.173c0 .393.127.684.382.87.254.188.626.282 1.116.282.653 0 1.226-.178 1.72-.533a6.052 6.052 0 0 0 1.361-1.39c.413-.57.812-1.21 1.196-1.915.384-.706.794-1.406 1.23-2.102.438-.696.925-1.354 1.462-1.973a6.578 6.578 0 0 1 1.887-1.505 3.807 3.807 0 0 0-1.325-.655c-.5-.14-.994-.209-1.483-.209a6.76 6.76 0 0 0-2.117.36c-.73.24-1.394.588-1.994 1.044a5.73 5.73 0 0 0-1.476 1.656c-.384.648-.576 1.38-.576 2.196 0 .23.03.47.093.72s.161.478.295.684c.135.207.303.377.504.511.202.135.437.202.706.202a1.97 1.97 0 0 0 1-.252c.294-.168.546-.394.757-.677a3.11 3.11 0 0 0 .482-.98c.11-.369.166-.75.166-1.144 0-.23-.01-.43-.029-.598a46.06 46.06 0 0 0-.058-.482l.159-.014Z%22 fill=%22url(%23b)%22%3E%3C/path%3E%3Cpath clip-path=%22url(%23c)%22 d=%22M15.108 12.625c-.154.252-.333.518-.536.798-.202.28-.43.532-.682.756-.252.224-.522.41-.809.557-.287.147-.591.22-.913.22-.35 0-.707-.105-1.071-.315-.252-.14-.48-.35-.682-.63a7.12 7.12 0 0 1-.546-.882 17.7 17.7 0 0 1-.441-.903 7.872 7.872 0 0 0-.347-.693c-.322.112-.64.196-.955.252a5.448 5.448 0 0 1-.956.084c-.462 0-.928-.056-1.396-.168a2.576 2.576 0 0 1-1.208-.65 5.65 5.65 0 0 0-.798.671 7.048 7.048 0 0 0-.693.798c-.07 0-.105-.049-.105-.147.238-.28.48-.539.724-.777a7.4 7.4 0 0 1 .767-.65c-.448-.49-.672-1.1-.672-1.828 0-.448.087-.913.262-1.396.175-.483.4-.956.672-1.418.274-.462.571-.9.893-1.312.322-.413.637-.767.945-1.06a5.3 5.3 0 0 1 3.675-1.513c.07 0 .115.014.136.042a.14.14 0 0 1 .032.084c0 .042-.014.063-.042.063a.973.973 0 0 0-.189-.02h-.147c-.336 0-.672.08-1.008.24a4.53 4.53 0 0 0-.945.61c-.294.245-.56.504-.798.777s-.441.514-.609.724c-.196.266-.403.574-.62.924-.216.35-.416.718-.598 1.103a7.648 7.648 0 0 0-.452 1.218 4.79 4.79 0 0 0-.178 1.291c0 .364.07.721.21 1.071.476-.322.931-.535 1.365-.64.434-.105.791-.158 1.071-.158.154 0 .318.01.493.032.176.02.361.073.557.157.196.084.399.214.609.389.21.175.42.416.63.724a4.999 4.999 0 0 0 1.386-1.04 7.732 7.732 0 0 0 1.785-3.076c.168-.56.252-1.085.252-1.575 0-.448-.053-.864-.158-1.25a2.497 2.497 0 0 0-.472-.955 1.746 1.746 0 0 0-.388-.325 1.35 1.35 0 0 0-.41-.179c-.07-.028-.105-.049-.105-.063 0-.028.035-.042.105-.042.112 0 .245.004.399.01.154.008.294.011.42.011.084 0 .178.01.284.032a.63.63 0 0 1 .283.136c.21.168.413.417.609.746s.294.794.294 1.396c0 .42-.077.914-.231 1.48a7.43 7.43 0 0 1-.735 1.733A8.669 8.669 0 0 1 11.78 9.79a6.94 6.94 0 0 1-1.922 1.386c.084.126.182.29.294.494.112.203.238.42.378.65.14.232.294.466.462.704.168.238.343.462.525.672.406.462.826.693 1.26.693.084 0 .203-.014.357-.042.154-.028.325-.101.514-.22.19-.12.396-.305.62-.557.224-.252.448-.602.672-1.05.028-.042.063-.049.105-.02.042.027.063.07.063.125Zm-6.111-1.239-.304-.472a2.253 2.253 0 0 0-.378-.441 1.8 1.8 0 0 0-.525-.326 1.952 1.952 0 0 0-.746-.126c-.35 0-.686.06-1.008.179a4.965 4.965 0 0 0-.945.472c.238.392.574.658 1.008.798.434.14.861.21 1.281.21.532 0 1.071-.098 1.617-.294Z%22 fill=%22url(%23d)%22%3E%3C/path%3E%3C/svg%3E" preserveAspectRatio="none" clip-path="url(#satori_cp-id-0-0-0)" mask="url(#satori_om-id-0-0-0)"/><mask id="satori_om-id-0-0-0-0"><rect x="32" y="32" width="0" height="72" fill="#fff"/></mask><mask id="satori_om-id-0-0-0-0-0"><rect x="32" y="32" width="0" height="72" fill="#fff"/></mask><mask id="satori_om-id-0-0-0-0-0-0"><rect x="32" y="32" width="0" height="72" fill="#fff"/></mask><mask id="satori_om-id-0-0-0-0-0-1"><rect x="32" y="32" width="0" height="72" fill="#fff"/></mask><mask id="satori_om-id-0-0-0-0-1"><rect x="32" y="32" width="0" height="72" fill="#fff"/></mask><mask id="satori_om-id-0-0-0-0-1-0"><rect x="32" y="32" width="0" height="72" fill="#fff"/></mask><mask id="satori_om-id-0-0-0-0-1-1"><rect x="32" y="32" width="0" height="72" fill="#fff"/></mask><mask id="satori_om-id-0-0-0-0-2"><rect x="32" y="32" width="0" height="72" fill="#fff"/></mask><mask id="satori_om-id-0-0-0-0-2-0"><rect x="32" y="32" width="0" height="72" fill="#fff"/></mask><mask id="satori_om-id-0-0-0-0-3"><rect x="32" y="32" width="0" height="72" fill="#fff"/></mask><mask id="satori_om-id-0-0-0-0-3-0"><rect x="32" y="32" width="0" height="72" fill="#fff"/></mask><mask id="satori_om-id-0-0-0-1"><rect x="32" y="32" width="0" height="72" fill="#fff"/></mask><mask id="satori_om-id-0-0-0-2"><rect x="32" y="32" width="0" height="72" fill="#fff"/></mask><mask id="satori_om-id-0-1"><rect x="32" y="238" width="1136" height="124" fill="#fff"/></mask><mask id="satori_om-id-0-1-0"><rect x="418" y="238" width="365" height="77" fill="#fff"/></mask><path fill="#fff" d="M431.9 300L422.0 300L422.0 253.5L431.9 253.5L431.9 272.7L451.9 272.7L451.9 253.5L461.7 253.5L461.7 300L451.9 300L451.9 280.8L431.9 280.8L431.9 300ZM485.5 300.7L485.5 300.7Q480.2 300.7 476.3 298.5Q472.4 296.3 470.3 292.3Q468.2 288.2 468.2 282.7L468.2 282.7Q468.2 277.3 470.3 273.3Q472.4 269.2 476.2 266.9Q480 264.6 485.1 264.6L485.1 264.6Q489.8 264.6 493.5 266.6Q497.2 268.5 499.4 272.5Q501.5 276.4 501.5 282.4L501.5 282.4L501.5 285.0L477.8 285.0L477.8 285.0Q477.8 289.0 479.9 291.2Q482.0 293.5 485.7 293.5L485.7 293.5Q488.1 293.5 489.9 292.4Q491.7 291.4 492.4 289.4L492.4 289.4L501.3 290Q500.3 294.9 496.2 297.8Q492 300.7 485.5 300.7ZM477.8 279.0L477.8 279.0L492.4 279.0Q492.4 275.9 490.4 273.9Q488.5 271.9 485.3 271.9L485.3 271.9Q482.1 271.9 480 274.0Q477.9 276.0 477.8 279.0ZM507.9 253.5L517.5 253.5L517.5 300L507.9 300L507.9 253.5ZM525.3 253.5L535.0 253.5L535.0 300L525.3 300L525.3 253.5ZM558.5 300.7L558.5 300.7Q553.2 300.7 549.3 298.4Q545.5 296.2 543.4 292.1Q541.3 288.0 541.3 282.7L541.3 282.7Q541.3 277.3 543.4 273.2Q545.5 269.2 549.3 266.9Q553.2 264.6 558.5 264.6L558.5 264.6Q563.7 264.6 567.6 266.9Q571.5 269.2 573.5 273.2Q575.6 277.3 575.6 282.7L575.6 282.7Q575.6 288.0 573.5 292.1Q571.5 296.2 567.6 298.4Q563.7 300.7 558.5 300.7ZM558.5 293.2L558.5 293.2Q562.1 293.2 563.9 290.2Q565.8 287.2 565.8 282.6L565.8 282.6Q565.8 278.0 563.9 275.0Q562.1 272.0 558.5 272.0L558.5 272.0Q554.8 272.0 553.0 275.0Q551.1 278.0 551.1 282.6L551.1 282.6Q551.1 287.2 553.0 290.2Q554.8 293.2 558.5 293.2Z M617.0 300L607.5 300L594.1 253.5L604.9 253.5L612.6 285.8L613.0 285.8L621.5 253.5L630.7 253.5L639.2 285.9L639.6 285.9L647.3 253.5L658.0 253.5L644.7 300L635.1 300L626.3 269.6L625.9 269.6L617.0 300ZM675.1 300.7L675.1 300.7Q669.8 300.7 665.9 298.4Q662.1 296.2 660 292.1Q657.9 288.0 657.9 282.7L657.9 282.7Q657.9 277.3 660 273.2Q662.1 269.2 665.9 266.9Q669.8 264.6 675.1 264.6L675.1 264.6Q680.4 264.6 684.2 266.9Q688.1 269.2 690.2 273.2Q692.3 277.3 692.3 282.7L692.3 282.7Q692.3 288.0 690.2 292.1Q688.1 296.2 684.2 298.4Q680.4 300.7 675.1 300.7ZM675.1 293.2L675.1 293.2Q678.7 293.2 680.6 290.2Q682.4 287.2 682.4 282.6L682.4 282.6Q682.4 278.0 680.6 275.0Q678.7 272.0 675.1 272.0L675.1 272.0Q671.5 272.0 669.6 275.0Q667.8 278.0 667.8 282.6L667.8 282.6Q667.8 287.2 669.6 290.2Q671.5 293.2 675.1 293.2ZM708.3 300L698.6 300L698.6 265.1L708.0 265.1L708.0 271.2L708.3 271.2Q709.3 267.9 711.5 266.3Q713.8 264.6 716.7 264.6L716.7 264.6Q718.3 264.6 719.8 264.9L719.8 264.9L719.8 273.5Q719.1 273.3 717.9 273.1Q716.7 273 715.7 273L715.7 273Q712.5 273 710.4 275.0Q708.3 277.0 708.3 280.3L708.3 280.3L708.3 300ZM724.8 253.5L734.4 253.5L734.4 300L724.8 300L724.8 253.5ZM755.0 300.6L755.0 300.6Q751.0 300.6 747.8 298.5Q744.6 296.5 742.8 292.4Q740.9 288.4 740.9 282.6L740.9 282.6Q740.9 276.6 742.8 272.6Q744.8 268.6 748.0 266.6Q751.2 264.6 755 264.6L755 264.6Q757.9 264.6 759.9 265.6Q761.9 266.6 763.1 268.1Q764.3 269.5 764.9 271.0L764.9 271.0L765.2 271.0L765.2 253.5L774.9 253.5L774.9 300L765.3 300L765.3 294.4L764.9 294.4Q764.3 295.9 763.0 297.3Q761.8 298.7 759.8 299.6Q757.8 300.6 755.0 300.6ZM758.1 292.9L758.1 292.9Q761.6 292.9 763.5 290.0Q765.4 287.2 765.4 282.5L765.4 282.5Q765.4 277.9 763.5 275.1Q761.6 272.3 758.1 272.3L758.1 272.3Q754.5 272.3 752.6 275.2Q750.8 278 750.8 282.5L750.8 282.5Q750.8 287.1 752.6 290.0Q754.5 292.9 758.1 292.9Z "/><mask id="satori_om-id-0-1-1"><rect x="497" y="315" width="207" height="47" fill="#fff"/></mask><path fill="#e5e5e5" d="M507.6 352.6L507.6 352.6Q505.0 352.6 503.1 351.3Q501.1 350.0 500.0 347.6Q498.8 345.1 498.8 341.8L498.8 341.8Q498.8 338.4 500.0 336.0Q501.1 333.5 503.1 332.3Q505.1 331.0 507.6 331.0L507.6 331.0Q509.6 331.0 510.8 331.6Q511.9 332.3 512.6 333.1Q513.3 334.0 513.6 334.6L513.6 334.6L513.9 334.6L513.9 324.3L518.0 324.3L518.0 352.2L514.0 352.2L514.0 348.9L513.6 348.9Q513.3 349.6 512.6 350.5Q511.9 351.3 510.7 352.0Q509.5 352.6 507.6 352.6ZM508.5 349.1L508.5 349.1Q511.1 349.1 512.5 347.1Q514.0 345.0 514.0 341.7L514.0 341.7Q514.0 338.4 512.6 336.4Q511.2 334.4 508.5 334.4L508.5 334.4Q506.6 334.4 505.4 335.4Q504.2 336.4 503.6 338.0Q502.9 339.6 502.9 341.7L502.9 341.7Q502.9 343.8 503.6 345.5Q504.2 347.2 505.4 348.2Q506.7 349.1 508.5 349.1ZM532.8 352.6L532.8 352.6Q529.7 352.6 527.5 351.3Q525.2 349.9 524.0 347.5Q522.8 345.1 522.8 341.9L522.8 341.9Q522.8 338.6 524.0 336.2Q525.2 333.7 527.4 332.4Q529.6 331.0 532.5 331.0L532.5 331.0Q534.9 331.0 537.0 332.0Q539.1 333.1 540.5 335.4Q541.8 337.7 541.8 341.5L541.8 341.5L541.8 343.0L526.9 343.0Q527.0 346.0 528.6 347.6Q530.2 349.3 532.8 349.3L532.8 349.3Q534.6 349.3 535.9 348.5Q537.1 347.8 537.7 346.3L537.7 346.3L541.5 347.0Q540.8 349.5 538.5 351.1Q536.2 352.6 532.8 352.6ZM526.9 339.9L526.9 339.9L537.8 339.9Q537.8 337.5 536.3 335.9Q534.9 334.3 532.5 334.3L532.5 334.3Q530.9 334.3 529.7 335.1Q528.4 335.9 527.7 337.2Q527.0 338.4 526.9 339.9ZM562.0 336.4L562.0 336.4L558.3 337.0Q558.0 336.0 557.0 335.1Q556.0 334.2 554.1 334.2L554.1 334.2Q552.4 334.2 551.2 335.0Q550.1 335.8 550.1 337.0L550.1 337.0Q550.1 338.0 550.9 338.7Q551.6 339.3 553.4 339.7L553.4 339.7L556.7 340.5Q562.4 341.8 562.4 346.1L562.4 346.1Q562.4 348.0 561.3 349.5Q560.3 351.0 558.3 351.8Q556.4 352.6 553.9 352.6L553.9 352.6Q550.3 352.6 548.1 351.1Q545.9 349.6 545.4 346.8L545.4 346.8L549.3 346.2Q550.1 349.3 553.8 349.3L553.8 349.3Q555.8 349.3 557.0 348.5Q558.2 347.7 558.2 346.4L558.2 346.4Q558.2 344.4 555.3 343.8L555.3 343.8L551.7 343.0Q548.8 342.4 547.4 340.9Q546.0 339.4 546.0 337.2L546.0 337.2Q546.0 335.3 547.0 333.9Q548.1 332.5 549.9 331.8Q551.7 331.0 554.1 331.0L554.1 331.0Q557.5 331.0 559.4 332.5Q561.4 333.9 562.0 336.4ZM575.7 352.6L575.7 352.6Q572.7 352.6 570.5 351.2Q568.3 349.9 567.1 347.4Q566.0 345.0 566.0 341.8L566.0 341.8Q566.0 338.6 567.2 336.2Q568.4 333.7 570.5 332.4Q572.7 331.0 575.7 331.0L575.7 331.0Q578.1 331.0 579.9 331.9Q581.8 332.7 583.0 334.3Q584.1 335.9 584.3 338.0L584.3 338.0L580.4 338.0Q580.0 336.5 578.9 335.5Q577.7 334.4 575.8 334.4L575.8 334.4Q573.2 334.4 571.6 336.4Q570.1 338.4 570.1 341.7L570.1 341.7Q570.1 345.1 571.6 347.2Q573.2 349.2 575.8 349.2L575.8 349.2Q577.5 349.2 578.7 348.2Q580.0 347.3 580.4 345.6L580.4 345.6L584.3 345.6Q584.1 347.6 583.0 349.2Q581.9 350.8 580.1 351.7Q578.2 352.6 575.7 352.6ZM592.8 352.2L588.7 352.2L588.7 331.3L592.6 331.3L592.6 334.6L592.9 334.6Q593.4 332.9 594.9 331.9Q596.3 330.9 598.2 330.9L598.2 330.9Q598.6 330.9 599.1 331.0Q599.6 331.0 599.9 331.0L599.9 331.0L599.9 334.9Q599.7 334.9 599.0 334.8Q598.4 334.7 597.8 334.7L597.8 334.7Q595.6 334.7 594.2 336.0Q592.8 337.3 592.8 339.4L592.8 339.4L592.8 352.2ZM607.5 352.2L603.5 352.2L603.5 331.3L607.5 331.3L607.5 352.2ZM605.5 328.0L605.5 328.0Q604.5 328.0 603.7 327.3Q602.9 326.6 602.9 325.6L602.9 325.6Q602.9 324.6 603.7 323.9Q604.5 323.2 605.5 323.2L605.5 323.2Q606.6 323.2 607.3 323.9Q608.1 324.6 608.1 325.6L608.1 325.6Q608.1 326.6 607.3 327.3Q606.6 328.0 605.5 328.0ZM617.1 360.1L613.0 360.1L613.0 331.3L617.0 331.3L617.0 334.6L617.3 334.6Q617.7 334.0 618.4 333.1Q619.0 332.3 620.2 331.6Q621.4 331.0 623.4 331.0L623.4 331.0Q625.9 331.0 627.9 332.3Q629.9 333.5 631.0 336.0Q632.1 338.4 632.1 341.8L632.1 341.8Q632.1 345.1 631.0 347.6Q629.9 350.0 627.9 351.3Q625.9 352.6 623.4 352.6L623.4 352.6Q621.5 352.6 620.3 352.0Q619.1 351.3 618.4 350.5Q617.7 349.6 617.3 348.9L617.3 348.9L617.1 348.9L617.1 360.1ZM617.0 341.7L617.0 341.7Q617.0 345.0 618.4 347.1Q619.8 349.1 622.5 349.1L622.5 349.1Q624.3 349.1 625.5 348.2Q626.8 347.2 627.4 345.5Q628.0 343.8 628.0 341.7L628.0 341.7Q628.0 339.6 627.4 338.0Q626.8 336.4 625.6 335.4Q624.3 334.4 622.5 334.4L622.5 334.4Q619.8 334.4 618.4 336.4Q617.0 338.4 617.0 341.7ZM642.2 331.3L646.5 331.3L646.5 334.5L642.2 334.5L642.2 346.1Q642.2 347.8 643.0 348.3Q643.7 348.8 644.7 348.8L644.7 348.8Q645.2 348.8 645.6 348.8Q645.9 348.7 646.1 348.7L646.1 348.7L646.9 352.0Q646.5 352.2 645.9 352.3Q645.2 352.5 644.2 352.5L644.2 352.5Q642.6 352.5 641.2 351.9Q639.8 351.3 639.0 350.0Q638.1 348.8 638.1 346.9L638.1 346.9L638.1 334.5L635.1 334.5L635.1 331.3L638.1 331.3L638.1 326.2L642.2 326.2L642.2 331.3ZM655.1 352.2L651.0 352.2L651.0 331.3L655.1 331.3L655.1 352.2ZM653.1 328.0L653.1 328.0Q652.0 328.0 651.2 327.3Q650.5 326.6 650.5 325.6L650.5 325.6Q650.5 324.6 651.2 323.9Q652.0 323.2 653.1 323.2L653.1 323.2Q654.1 323.2 654.9 323.9Q655.6 324.6 655.6 325.6L655.6 325.6Q655.6 326.6 654.9 327.3Q654.1 328.0 653.1 328.0ZM669.4 352.6L669.4 352.6Q666.4 352.6 664.2 351.3Q662.0 349.9 660.8 347.5Q659.6 345.1 659.6 341.8L659.6 341.8Q659.6 338.6 660.8 336.1Q662.0 333.7 664.2 332.3Q666.4 331.0 669.4 331.0L669.4 331.0Q672.3 331.0 674.5 332.3Q676.7 333.7 677.9 336.1Q679.1 338.6 679.1 341.8L679.1 341.8Q679.1 345.1 677.9 347.5Q676.7 349.9 674.5 351.3Q672.3 352.6 669.4 352.6ZM669.4 349.2L669.4 349.2Q671.3 349.2 672.6 348.2Q673.8 347.2 674.4 345.5Q675.0 343.8 675.0 341.8L675.0 341.8Q675.0 339.8 674.4 338.1Q673.8 336.4 672.6 335.4Q671.3 334.4 669.4 334.4L669.4 334.4Q667.5 334.4 666.2 335.4Q665.0 336.4 664.3 338.1Q663.7 339.8 663.7 341.8L663.7 341.8Q663.7 343.8 664.3 345.5Q665.0 347.2 666.2 348.2Q667.5 349.2 669.4 349.2ZM687.8 339.8L687.8 339.8L687.8 352.2L683.7 352.2L683.7 331.3L687.6 331.3L687.6 334.7L687.9 334.7Q688.6 333 690.1 332.0Q691.7 331.0 694.0 331.0L694.0 331.0Q697.2 331.0 699.2 333.0Q701.2 335.0 701.2 338.9L701.2 338.9L701.2 352.2L697.1 352.2L697.1 339.4Q697.1 337.1 695.9 335.8Q694.7 334.5 692.6 334.5L692.6 334.5Q690.5 334.5 689.1 335.9Q687.8 337.3 687.8 339.8Z "/><mask id="satori_om-id-0-2"><rect x="32" y="576" width="1136" height="20" fill="#fff"/></mask><mask id="satori_om-id-0-2-0"><rect x="924" y="576" width="244" height="20" fill="#fff"/></mask><mask id="satori_om-id-0-2-0-0"><rect x="928" y="577" width="123" height="20" fill="#fff"/></mask><path fill="#737373" d="M933.7 592.5L929.3 592.5L929.3 580.9L933.5 580.9Q934.8 580.9 935.6 581.3Q936.4 581.7 936.8 582.4Q937.2 583.1 937.2 583.9L937.2 583.9Q937.2 585.0 936.6 585.6Q936.1 586.2 935.3 586.4L935.3 586.4L935.3 586.5Q935.8 586.5 936.4 586.9Q936.9 587.2 937.3 587.8Q937.7 588.5 937.7 589.4L937.7 589.4Q937.7 590.3 937.2 591.0Q936.8 591.7 936.0 592.1Q935.1 592.5 933.7 592.5L933.7 592.5ZM931.0 587.3L931.0 591.0L933.6 591.0Q934.8 591.0 935.4 590.5Q935.9 590.0 935.9 589.3L935.9 589.3Q935.9 588.5 935.3 587.9Q934.7 587.3 933.6 587.3L933.6 587.3L931.0 587.3ZM931.0 582.4L931.0 585.9L933.4 585.9Q934.3 585.9 934.9 585.4Q935.5 584.9 935.5 584.1L935.5 584.1Q935.5 583.3 935.0 582.8Q934.5 582.4 933.4 582.4L933.4 582.4L931.0 582.4ZM940.7 595.8L940.7 595.8Q940.3 595.8 940.0 595.7Q939.7 595.7 939.5 595.6L939.5 595.6L939.9 594.2Q940.6 594.4 941.1 594.2Q941.6 594.1 941.9 593.2L941.9 593.2L942.1 592.6L938.9 583.8L940.7 583.8L942.9 590.5L943.0 590.5L945.3 583.8L947.1 583.8L943.5 593.7Q943.1 594.7 942.4 595.2Q941.7 595.8 940.7 595.8Z M963.2 586.7L963.2 586.7Q963.2 588.3 962.6 589.5Q962.1 590.7 961.2 591.5L961.2 591.5L962.8 593.5L961.0 593.5L960.0 592.3Q959.0 592.7 957.9 592.7L957.9 592.7Q956.4 592.7 955.2 591.9Q954.0 591.2 953.4 589.9Q952.7 588.5 952.7 586.7L952.7 586.7Q952.7 584.8 953.4 583.5Q954.0 582.1 955.2 581.4Q956.4 580.7 957.9 580.7L957.9 580.7Q959.4 580.7 960.6 581.4Q961.8 582.1 962.5 583.5Q963.2 584.8 963.2 586.7ZM959.0 590.9L957.3 588.7L959.1 588.7L960.2 590.2Q960.8 589.6 961.1 588.8Q961.4 587.9 961.4 586.7L961.4 586.7Q961.4 585.3 961.0 584.3Q960.5 583.3 959.7 582.8Q958.9 582.3 957.9 582.3L957.9 582.3Q956.9 582.3 956.1 582.8Q955.3 583.3 954.9 584.3Q954.4 585.3 954.4 586.7L954.4 586.7Q954.4 588.1 954.9 589.1Q955.3 590.1 956.1 590.6Q956.9 591.1 957.9 591.1L957.9 591.1Q958.5 591.1 959.0 590.9L959.0 590.9ZM965.6 592.6L965.6 592.6Q965.1 592.6 964.8 592.3Q964.5 591.9 964.5 591.5L964.5 591.5Q964.5 591.0 964.8 590.7Q965.1 590.3 965.6 590.3L965.6 590.3Q966.1 590.3 966.4 590.7Q966.7 591.0 966.7 591.5L966.7 591.5Q966.7 591.9 966.4 592.3Q966.1 592.6 965.6 592.6ZM973.6 592.5L969.1 592.5L969.1 580.9L973.4 580.9Q974.6 580.9 975.5 581.3Q976.3 581.7 976.7 582.4Q977.1 583.1 977.1 583.9L977.1 583.9Q977.1 585.0 976.5 585.6Q975.9 586.2 975.1 586.4L975.1 586.4L975.1 586.5Q975.7 586.5 976.2 586.9Q976.8 587.2 977.2 587.8Q977.5 588.5 977.5 589.4L977.5 589.4Q977.5 590.3 977.1 591.0Q976.7 591.7 975.8 592.1Q975.0 592.5 973.6 592.5L973.6 592.5ZM970.9 587.3L970.9 591.0L973.4 591.0Q974.7 591.0 975.2 590.5Q975.8 590.0 975.8 589.3L975.8 589.3Q975.8 588.5 975.2 587.9Q974.6 587.3 973.5 587.3L973.5 587.3L970.9 587.3ZM970.9 582.4L970.9 585.9L973.3 585.9Q974.1 585.9 974.7 585.4Q975.4 584.9 975.4 584.1L975.4 584.1Q975.4 583.3 974.8 582.8Q974.3 582.4 973.3 582.4L973.3 582.4L970.9 582.4ZM983.2 592.7L983.2 592.7Q981.9 592.7 981.0 592.1Q980.1 591.6 979.6 590.6Q979.1 589.5 979.1 588.2L979.1 588.2Q979.1 586.9 979.6 585.8Q980.1 584.8 981.0 584.2Q981.9 583.7 983.1 583.7L983.1 583.7Q984.1 583.7 985.0 584.1Q985.9 584.5 986.4 585.5Q987.0 586.5 987.0 588.0L987.0 588.0L987.0 588.6L980.8 588.6Q980.8 589.9 981.5 590.6Q982.2 591.3 983.3 591.3L983.3 591.3Q984.0 591.3 984.5 591.0Q985.0 590.6 985.3 590.0L985.3 590.0L986.9 590.3Q986.6 591.4 985.6 592.0Q984.7 592.7 983.2 592.7ZM980.8 587.4L980.8 587.4L985.3 587.4Q985.3 586.4 984.7 585.7Q984.1 585.1 983.1 585.1L983.1 585.1Q982.4 585.1 981.9 585.4Q981.4 585.7 981.1 586.2Q980.8 586.8 980.8 587.4ZM990.6 587.3L990.6 587.3L990.6 592.5L988.9 592.5L988.9 583.8L990.5 583.8L990.5 585.2L990.6 585.2Q990.9 584.5 991.6 584.1Q992.2 583.7 993.2 583.7L993.2 583.7Q994.5 583.7 995.3 584.5Q996.2 585.3 996.2 586.9L996.2 586.9L996.2 592.5L994.5 592.5L994.5 587.2Q994.5 586.2 994.0 585.7Q993.5 585.1 992.6 585.1L992.6 585.1Q991.7 585.1 991.1 585.7Q990.6 586.3 990.6 587.3Z M1011.5 592.5L1003.2 592.5L1003.2 591.3L1009.3 582.4L1003.2 582.4L1003.2 580.9L1011.5 580.9L1011.5 582.0L1005.4 591.0L1011.5 591.0L1011.5 592.5ZM1015.3 587.3L1015.3 587.3L1015.3 592.5L1013.6 592.5L1013.6 580.9L1015.3 580.9L1015.3 585.2L1015.4 585.2Q1015.7 584.5 1016.3 584.1Q1017.0 583.7 1018.0 583.7L1018.0 583.7Q1019.3 583.7 1020.2 584.5Q1021.0 585.3 1021.0 586.9L1021.0 586.9L1021.0 592.5L1019.3 592.5L1019.3 587.2Q1019.3 586.2 1018.8 585.7Q1018.3 585.1 1017.4 585.1L1017.4 585.1Q1016.5 585.1 1015.9 585.7Q1015.3 586.3 1015.3 587.3ZM1027.0 592.7L1027.0 592.7Q1025.7 592.7 1024.8 592.1Q1023.9 591.6 1023.4 590.6Q1022.9 589.5 1022.9 588.2L1022.9 588.2Q1022.9 586.9 1023.4 585.8Q1023.9 584.8 1024.8 584.2Q1025.7 583.7 1026.9 583.7L1026.9 583.7Q1027.9 583.7 1028.8 584.1Q1029.6 584.5 1030.2 585.5Q1030.8 586.5 1030.8 588.0L1030.8 588.0L1030.8 588.6L1024.5 588.6Q1024.6 589.9 1025.3 590.6Q1025.9 591.3 1027.0 591.3L1027.0 591.3Q1027.8 591.3 1028.3 591.0Q1028.8 590.6 1029.0 590.0L1029.0 590.0L1030.6 590.3Q1030.4 591.4 1029.4 592.0Q1028.4 592.7 1027.0 592.7ZM1024.6 587.4L1024.6 587.4L1029.1 587.4Q1029.1 586.4 1028.5 585.7Q1027.9 585.1 1026.9 585.1L1026.9 585.1Q1026.2 585.1 1025.7 585.4Q1025.2 585.7 1024.9 586.2Q1024.6 586.8 1024.6 587.4ZM1034.3 587.3L1034.3 587.3L1034.3 592.5L1032.6 592.5L1032.6 583.8L1034.3 583.8L1034.3 585.2L1034.4 585.2Q1034.7 584.5 1035.3 584.1Q1036.0 583.7 1037.0 583.7L1037.0 583.7Q1038.3 583.7 1039.1 584.5Q1039.9 585.3 1039.9 586.9L1039.9 586.9L1039.9 592.5L1038.2 592.5L1038.2 587.2Q1038.2 586.2 1037.7 585.7Q1037.2 585.1 1036.4 585.1L1036.4 585.1Q1035.5 585.1 1034.9 585.7Q1034.3 586.3 1034.3 587.3ZM1045.9 596.0L1045.9 596.0Q1044.3 596.0 1043.4 595.4Q1042.5 594.8 1042.1 594.0L1042.1 594.0L1043.6 593.4Q1043.8 593.6 1044.0 593.9Q1044.3 594.2 1044.7 594.4Q1045.2 594.6 1045.9 594.6L1045.9 594.6Q1046.8 594.6 1047.5 594.1Q1048.1 593.7 1048.1 592.6L1048.1 592.6L1048.1 590.9L1048.0 590.9Q1047.8 591.2 1047.6 591.5Q1047.3 591.9 1046.8 592.1Q1046.3 592.4 1045.5 592.4L1045.5 592.4Q1044.4 592.4 1043.6 591.9Q1042.8 591.4 1042.3 590.4Q1041.8 589.5 1041.8 588.1L1041.8 588.1Q1041.8 586.7 1042.3 585.7Q1042.8 584.7 1043.6 584.2Q1044.4 583.7 1045.5 583.7L1045.5 583.7Q1046.3 583.7 1046.8 583.9Q1047.3 584.2 1047.6 584.6Q1047.9 584.9 1048.0 585.2L1048.0 585.2L1048.1 585.2L1048.1 583.8L1049.8 583.8L1049.8 592.7Q1049.8 593.8 1049.3 594.5Q1048.8 595.3 1047.9 595.6Q1047.0 596.0 1045.9 596.0ZM1045.8 591.0L1045.8 591.0Q1046.9 591.0 1047.5 590.2Q1048.1 589.4 1048.1 588.1L1048.1 588.1Q1048.1 586.8 1047.5 585.9Q1047.0 585.1 1045.8 585.1L1045.8 585.1Q1045.1 585.1 1044.6 585.5Q1044.1 585.9 1043.8 586.6Q1043.5 587.2 1043.5 588.1L1043.5 588.1Q1043.5 589.4 1044.1 590.2Q1044.7 591.0 1045.8 591.0Z "/><defs><clipPath id="satori_bc-id-0-2-0-1"><rect x="1059" y="576" width="109" height="20"/></clipPath></defs><mask id="satori_om-id-0-2-0-1"><rect x="1059" y="576" width="109" height="19" fill="#fff"/><path width="109" height="20" fill="none" stroke="#000" stroke-width="2" d="M1168,596 A0,0 0 0 1 1168,596 h-109 A0,0 0 0 1 1059,596"/></mask><path width="109" height="20" clip-path="url(#satori_bc-id-0-2-0-1)" fill="none" stroke="#a3a3a3" stroke-width="2" d="M1168,596 A0,0 0 0 1 1168,596 h-109 A0,0 0 0 1 1059,596"/><path fill="#737373" d="M1061.8 586.3L1061.8 586.3L1061.8 591.5L1060.1 591.5L1060.1 579.9L1061.8 579.9L1061.8 584.2L1061.9 584.2Q1062.2 583.5 1062.9 583.1Q1063.5 582.7 1064.5 582.7L1064.5 582.7Q1065.9 582.7 1066.7 583.5Q1067.5 584.3 1067.5 585.9L1067.5 585.9L1067.5 591.5L1065.8 591.5L1065.8 586.2Q1065.8 585.2 1065.3 584.7Q1064.8 584.1 1063.9 584.1L1063.9 584.1Q1063.0 584.1 1062.4 584.7Q1061.8 585.3 1061.8 586.3ZM1072.1 582.8L1073.8 582.8L1073.8 584.1L1072.1 584.1L1072.1 588.9Q1072.1 589.7 1072.4 589.9Q1072.7 590.1 1073.1 590.1L1073.1 590.1Q1073.3 590.1 1073.5 590.1Q1073.6 590.0 1073.7 590.0L1073.7 590.0L1074.0 591.4Q1073.9 591.5 1073.6 591.5Q1073.3 591.6 1072.9 591.6L1072.9 591.6Q1072.2 591.6 1071.7 591.4Q1071.1 591.1 1070.7 590.6Q1070.4 590.1 1070.4 589.3L1070.4 589.3L1070.4 584.1L1069.1 584.1L1069.1 582.8L1070.4 582.8L1070.4 580.7L1072.1 580.7L1072.1 582.8ZM1078.0 582.8L1079.8 582.8L1079.8 584.1L1078.0 584.1L1078.0 588.9Q1078.0 589.7 1078.3 589.9Q1078.6 590.1 1079.1 590.1L1079.1 590.1Q1079.3 590.1 1079.4 590.1Q1079.6 590.0 1079.6 590.0L1079.6 590.0L1080.0 591.4Q1079.8 591.5 1079.5 591.5Q1079.3 591.6 1078.9 591.6L1078.9 591.6Q1078.2 591.6 1077.6 591.4Q1077.0 591.1 1076.7 590.6Q1076.3 590.1 1076.3 589.3L1076.3 589.3L1076.3 584.1L1075.0 584.1L1075.0 582.8L1076.3 582.8L1076.3 580.7L1078.0 580.7L1078.0 582.8ZM1083.4 594.8L1081.7 594.8L1081.7 582.8L1083.3 582.8L1083.3 584.2L1083.5 584.2Q1083.6 583.9 1083.9 583.6Q1084.2 583.2 1084.7 582.9Q1085.2 582.7 1086.0 582.7L1086.0 582.7Q1087.0 582.7 1087.9 583.2Q1088.7 583.7 1089.2 584.7Q1089.6 585.7 1089.6 587.2L1089.6 587.2Q1089.6 588.6 1089.2 589.6Q1088.7 590.6 1087.9 591.1Q1087.1 591.7 1086.0 591.7L1086.0 591.7Q1085.2 591.7 1084.7 591.4Q1084.2 591.1 1083.9 590.8Q1083.6 590.4 1083.5 590.1L1083.5 590.1L1083.4 590.1L1083.4 594.8ZM1083.3 587.1L1083.3 587.1Q1083.3 588.5 1083.9 589.4Q1084.5 590.2 1085.6 590.2L1085.6 590.2Q1086.4 590.2 1086.9 589.8Q1087.4 589.4 1087.7 588.7Q1087.9 588.0 1087.9 587.1L1087.9 587.1Q1087.9 586.3 1087.7 585.6Q1087.4 584.9 1086.9 584.5Q1086.4 584.1 1085.6 584.1L1085.6 584.1Q1084.5 584.1 1083.9 584.9Q1083.3 585.8 1083.3 587.1ZM1098.1 584.9L1098.1 584.9L1096.5 585.2Q1096.4 584.7 1096.0 584.4Q1095.6 584.0 1094.8 584.0L1094.8 584.0Q1094.1 584.0 1093.6 584.3Q1093.1 584.6 1093.1 585.2L1093.1 585.2Q1093.1 585.6 1093.4 585.9Q1093.8 586.1 1094.5 586.3L1094.5 586.3L1095.9 586.6Q1098.3 587.2 1098.3 589.0L1098.3 589.0Q1098.3 589.8 1097.8 590.4Q1097.4 591.0 1096.5 591.3Q1095.7 591.7 1094.7 591.7L1094.7 591.7Q1093.2 591.7 1092.3 591.0Q1091.4 590.4 1091.2 589.3L1091.2 589.3L1092.8 589.0Q1093.1 590.3 1094.7 590.3L1094.7 590.3Q1095.5 590.3 1096.0 590.0Q1096.5 589.6 1096.5 589.1L1096.5 589.1Q1096.5 588.3 1095.3 588.0L1095.3 588.0L1093.8 587.7Q1092.6 587.4 1092.0 586.8Q1091.4 586.2 1091.4 585.2L1091.4 585.2Q1091.4 584.5 1091.8 583.9Q1092.3 583.3 1093.0 583.0Q1093.8 582.7 1094.8 582.7L1094.8 582.7Q1096.2 582.7 1097.0 583.3Q1097.8 583.9 1098.1 584.9ZM1101.2 585.3L1101.2 585.3Q1100.8 585.3 1100.4 584.9Q1100.1 584.6 1100.1 584.1L1100.1 584.1Q1100.1 583.7 1100.4 583.3Q1100.8 583.0 1101.2 583.0L1101.2 583.0Q1101.7 583.0 1102.0 583.3Q1102.4 583.7 1102.4 584.1L1102.4 584.1Q1102.4 584.6 1102.0 584.9Q1101.7 585.3 1101.2 585.3ZM1101.2 591.6L1101.2 591.6Q1100.8 591.6 1100.4 591.3Q1100.1 590.9 1100.1 590.5L1100.1 590.5Q1100.1 590.0 1100.4 589.7Q1100.8 589.3 1101.2 589.3L1101.2 589.3Q1101.7 589.3 1102.0 589.7Q1102.4 590.0 1102.4 590.5L1102.4 590.5Q1102.4 590.9 1102.0 591.3Q1101.7 591.6 1101.2 591.6ZM1107.6 579.3L1109.1 579.3L1105.3 593.3L1103.8 593.3L1107.6 579.3ZM1113.4 579.3L1115.0 579.3L1111.2 593.3L1109.7 593.3L1113.4 579.3ZM1124 594.8L1122.3 594.8L1122.3 590.1L1122.2 590.1Q1122.0 590.4 1121.8 590.8Q1121.5 591.1 1121.0 591.4Q1120.5 591.7 1119.7 591.7L1119.7 591.7Q1118.6 591.7 1117.8 591.1Q1117.0 590.6 1116.5 589.6Q1116.0 588.6 1116.0 587.2L1116.0 587.2Q1116.0 585.7 1116.5 584.7Q1117.0 583.7 1117.8 583.2Q1118.6 582.7 1119.7 582.7L1119.7 582.7Q1120.5 582.7 1121.0 582.9Q1121.5 583.2 1121.8 583.6Q1122.0 583.9 1122.2 584.2L1122.2 584.2L1122.3 584.2L1122.3 582.8L1124 582.8L1124 594.8ZM1120.1 590.2L1120.1 590.2Q1121.2 590.2 1121.7 589.4Q1122.3 588.5 1122.3 587.1L1122.3 587.1Q1122.3 585.8 1121.7 584.9Q1121.2 584.1 1120.1 584.1L1120.1 584.1Q1119.3 584.1 1118.8 584.5Q1118.3 584.9 1118.0 585.6Q1117.7 586.3 1117.7 587.1L1117.7 587.1Q1117.7 588.0 1118.0 588.7Q1118.3 589.4 1118.8 589.8Q1119.3 590.2 1120.1 590.2ZM1128.1 591.5L1126.4 591.5L1126.4 579.9L1128.1 579.9L1128.1 584.2L1128.2 584.2Q1128.4 583.9 1128.7 583.6Q1128.9 583.2 1129.4 582.9Q1129.9 582.7 1130.7 582.7L1130.7 582.7Q1131.8 582.7 1132.6 583.2Q1133.4 583.7 1133.9 584.7Q1134.4 585.7 1134.4 587.2L1134.4 587.2Q1134.4 588.6 1133.9 589.6Q1133.4 590.6 1132.6 591.1Q1131.8 591.7 1130.7 591.7L1130.7 591.7Q1129.9 591.7 1129.4 591.4Q1128.9 591.1 1128.7 590.8Q1128.4 590.4 1128.2 590.1L1128.2 590.1L1128.1 590.1L1128.1 591.5ZM1128.1 587.1L1128.1 587.1Q1128.1 588.5 1128.7 589.4Q1129.3 590.2 1130.4 590.2L1130.4 590.2Q1131.1 590.2 1131.6 589.8Q1132.2 589.4 1132.4 588.7Q1132.7 588.0 1132.7 587.1L1132.7 587.1Q1132.7 586.3 1132.4 585.6Q1132.2 584.9 1131.6 584.5Q1131.1 584.1 1130.4 584.1L1130.4 584.1Q1129.3 584.1 1128.7 584.9Q1128.1 585.8 1128.1 587.1ZM1138.1 591.5L1136.4 591.5L1136.4 579.9L1138.1 579.9L1138.1 584.2L1138.2 584.2Q1138.4 583.9 1138.7 583.6Q1138.9 583.2 1139.4 582.9Q1139.9 582.7 1140.7 582.7L1140.7 582.7Q1141.8 582.7 1142.6 583.2Q1143.4 583.7 1143.9 584.7Q1144.4 585.7 1144.4 587.2L1144.4 587.2Q1144.4 588.6 1143.9 589.6Q1143.5 590.6 1142.6 591.1Q1141.8 591.7 1140.8 591.7L1140.8 591.7Q1140.0 591.7 1139.5 591.4Q1139.0 591.1 1138.7 590.8Q1138.4 590.4 1138.2 590.1L1138.2 590.1L1138.1 590.1L1138.1 591.5ZM1138.1 587.1L1138.1 587.1Q1138.1 588.5 1138.7 589.4Q1139.3 590.2 1140.4 590.2L1140.4 590.2Q1141.1 590.2 1141.7 589.8Q1142.2 589.4 1142.4 588.7Q1142.7 588.0 1142.7 587.1L1142.7 587.1Q1142.7 586.3 1142.4 585.6Q1142.2 584.9 1141.7 584.5Q1141.1 584.1 1140.4 584.1L1140.4 584.1Q1139.3 584.1 1138.7 584.9Q1138.1 585.8 1138.1 587.1ZM1147.4 591.6L1147.4 591.6Q1147.0 591.6 1146.6 591.3Q1146.3 590.9 1146.3 590.5L1146.3 590.5Q1146.3 590.0 1146.6 589.7Q1147.0 589.3 1147.4 589.3L1147.4 589.3Q1147.9 589.3 1148.2 589.7Q1148.6 590.0 1148.6 590.5L1148.6 590.5Q1148.6 590.9 1148.2 591.3Q1147.9 591.6 1147.4 591.6ZM1157.4 584.9L1157.4 584.9L1155.8 585.2Q1155.7 584.7 1155.3 584.4Q1154.9 584.0 1154.1 584.0L1154.1 584.0Q1153.4 584.0 1152.9 584.3Q1152.4 584.6 1152.4 585.2L1152.4 585.2Q1152.4 585.6 1152.7 585.9Q1153.1 586.1 1153.8 586.3L1153.8 586.3L1155.2 586.6Q1157.5 587.2 1157.5 589.0L1157.5 589.0Q1157.5 589.8 1157.1 590.4Q1156.6 591.0 1155.8 591.3Q1155.0 591.7 1154.0 591.7L1154.0 591.7Q1152.5 591.7 1151.6 591.0Q1150.7 590.4 1150.4 589.3L1150.4 589.3L1152.1 589.0Q1152.4 590.3 1154.0 590.3L1154.0 590.3Q1154.8 590.3 1155.3 590.0Q1155.8 589.6 1155.8 589.1L1155.8 589.1Q1155.8 588.3 1154.6 588.0L1154.6 588.0L1153.1 587.7Q1151.9 587.4 1151.3 586.8Q1150.7 586.2 1150.7 585.2L1150.7 585.2Q1150.7 584.5 1151.1 583.9Q1151.6 583.3 1152.3 583.0Q1153.1 582.7 1154.1 582.7L1154.1 582.7Q1155.5 582.7 1156.3 583.3Q1157.1 583.9 1157.4 584.9ZM1161.1 586.3L1161.1 586.3L1161.1 591.5L1159.4 591.5L1159.4 579.9L1161.1 579.9L1161.1 584.2L1161.2 584.2Q1161.5 583.5 1162.1 583.1Q1162.8 582.7 1163.8 582.7L1163.8 582.7Q1165.1 582.7 1165.9 583.5Q1166.8 584.3 1166.8 585.9L1166.8 585.9L1166.8 591.5L1165.1 591.5L1165.1 586.2Q1165.1 585.2 1164.6 584.7Q1164.1 584.1 1163.2 584.1L1163.2 584.1Q1162.3 584.1 1161.7 584.7Q1161.1 585.3 1161.1 586.3Z "/></svg>