<svg width="1200" height="628" viewBox="0 0 1200 628" xmlns="http://www.w3.org/2000/svg"><defs><pattern id="satori_pattern_id-0_0" x="0" y="0" width="1" height="1" patternUnits="objectBoundingBox"><linearGradient id="satori_biid-0_0" x1="0" y1="0" x2="0.7071067811865476" y2="0.7071067811865475"><stop offset="0%" stop-color="rgb(30,30,30)"/><stop offset="20%" stop-color="rgb(6,6,7)"/><stop offset="70%" stop-color="rgb(25,95,60)"/><stop offset="100%" stop-color="rgb(20,20,20)"/></linearGradient><rect x="0" y="0" width="1200" height="628" fill="url(#satori_biid-0_0)"/></pattern></defs><rect x="0" y="0" width="1200" height="628" fill="url(#satori_pattern_id-0_0)"/><clipPath id="satori_cp-id-0-0-0"><rect x="32" y="32" width="72" height="72"/></clipPath><mask id="satori_om-id-0-0-0"><rect x="32" y="32" width="72" height="72" fill="#fff"/></mask><image x="32" y="32" width="72" height="72" href="data:image/svg+xml;utf8,%3Csvg  xmlns=%22http://www.w3.org/2000/svg%22 width=%2272%22 height=%2272%22 viewBox=%220 0 24 24%22%3E%3Cdefs%3E%3ClinearGradient id=%22b%22 gradientUnits=%22userSpaceOnUse%22 x1=%2219.78%22 x2=%2210.749%22 y1=%2211.04%22 y2=%2220.16%22%3E%3Cstop offset=%220%22 stop-color=%22%23fff%22%3E%3C/stop%3E%3Cstop offset=%221%22 stop-color=%22%23ababab%22%3E%3C/stop%3E%3C/linearGradient%3E%3ClinearGradient id=%22d%22 gradientUnits=%22userSpaceOnUse%22 x1=%2213.669%22 x2=%227.911%22 y1=%222.441%22 y2=%2219.191%22%3E%3Cstop offset=%220%22 stop-color=%22%23fff%22%3E%3C/stop%3E%3Cstop offset=%221%22 stop-color=%22%23ababab%22%3E%3C/stop%3E%3C/linearGradient%3E%3CclipPath id=%22a%22%3E%3Cpath d=%22M6.621 6.548h16.145v19H6.621z%22%3E%3C/path%3E%3C/clipPath%3E%3CclipPath id=%22c%22%3E%3Cpath d=%22M0-4.236h15.108v30H0z%22%3E%3C/path%3E%3C/clipPath%3E%3C/defs%3E%3Cpath clip-path=%22url(%23a)%22 d=%22M15.105 12.55c.019.115.04.266.065.453.024.188.036.382.036.583 0 .442-.063.867-.188 1.275a3.145 3.145 0 0 1-.568 1.08c-.255.312-.57.56-.944.742-.374.182-.81.273-1.31.273-.365 0-.691-.06-.98-.18a2.018 2.018 0 0 1-.726-.504 2.242 2.242 0 0 1-.454-.77 2.909 2.909 0 0 1-.158-.98c0-.527.11-1.027.33-1.497.222-.47.52-.902.894-1.296a7.225 7.225 0 0 1 1.303-1.073 9.111 9.111 0 0 1 1.562-.814 9.933 9.933 0 0 1 1.678-.51 7.955 7.955 0 0 1 1.634-.18 8.9 8.9 0 0 1 1.8.172 9.242 9.242 0 0 1 1.642.504c.374-.163.756-.312 1.145-.446.388-.135.79-.211 1.202-.23l.029.086c-.135 0-.298.024-.49.072a5.368 5.368 0 0 0-1.138.44c-.172.09-.302.179-.388.265.365.211.657.483.878.814.221.331.331.713.331 1.145 0 .412-.103.765-.31 1.058a2.706 2.706 0 0 1-.777.735 4.13 4.13 0 0 1-1.022.46 9.04 9.04 0 0 1-1.059.252l-.014.03c.298.037.588.083.871.136.283.053.538.142.763.266.226.125.406.3.54.526.135.226.202.526.202.9a3.02 3.02 0 0 1-.338 1.433c-.226.427-.526.79-.9 1.087a4.143 4.143 0 0 1-1.268.684c-.47.158-.95.238-1.44.238a2.54 2.54 0 0 1-.619-.08 1.949 1.949 0 0 1-.569-.237 1.394 1.394 0 0 1-.417-.404 1.003 1.003 0 0 1-.166-.575.91.91 0 0 1 .26-.649.84.84 0 0 1 .633-.273c.288 0 .542.096.763.288a1.11 1.11 0 0 0-.425.432 1.215 1.215 0 0 0-.136.576c0 .25.067.437.201.562.135.124.327.187.576.187a1.8 1.8 0 0 0 1.023-.31c.307-.206.566-.465.777-.777.211-.313.375-.656.49-1.03.115-.375.173-.73.173-1.066 0-.633-.166-1.096-.497-1.39-.331-.292-.843-.438-1.534-.438l.015-.116a4.18 4.18 0 0 0 1.05-.194 3.09 3.09 0 0 0 .93-.475c.273-.207.496-.466.67-.778.172-.312.258-.684.258-1.116 0-.269-.048-.526-.144-.77a1.622 1.622 0 0 0-.46-.641 5.97 5.97 0 0 0-1.296 1.483c-.384.605-.766 1.25-1.145 1.937-.38.686-.775 1.377-1.188 2.073a10.54 10.54 0 0 1-1.419 1.887 6.595 6.595 0 0 1-1.85 1.368c-.7.35-1.526.526-2.477.526-.307 0-.607-.041-.9-.123a2.61 2.61 0 0 1-.785-.36 1.969 1.969 0 0 1-.561-.583 1.463 1.463 0 0 1-.216-.792c0-.279.074-.518.223-.72.149-.202.377-.303.684-.303.22 0 .396.068.526.202s.194.302.194.504a.654.654 0 0 1-.173.46c-.115.126-.23.198-.345.217a.768.768 0 0 0-.015.173c0 .393.127.684.382.87.254.188.626.282 1.116.282.653 0 1.226-.178 1.72-.533a6.052 6.052 0 0 0 1.361-1.39c.413-.57.812-1.21 1.196-1.915.384-.706.794-1.406 1.23-2.102.438-.696.925-1.354 1.462-1.973a6.578 6.578 0 0 1 1.887-1.505 3.807 3.807 0 0 0-1.325-.655c-.5-.14-.994-.209-1.483-.209a6.76 6.76 0 0 0-2.117.36c-.73.24-1.394.588-1.994 1.044a5.73 5.73 0 0 0-1.476 1.656c-.384.648-.576 1.38-.576 2.196 0 .23.03.47.093.72s.161.478.295.684c.135.207.303.377.504.511.202.135.437.202.706.202a1.97 1.97 0 0 0 1-.252c.294-.168.546-.394.757-.677a3.11 3.11 0 0 0 .482-.98c.11-.369.166-.75.166-1.144 0-.23-.01-.43-.029-.598a46.06 46.06 0 0 0-.058-.482l.159-.014Z%22 fill=%22url(%23b)%22%3E%3C/path%3E%3Cpath clip-path=%22url(%23c)%22 d=%22M15.108 12.625c-.154.252-.333.518-.536.798-.202.28-.43.532-.682.756-.252.224-.522.41-.809.557-.287.147-.591.22-.913.22-.35 0-.707-.105-1.071-.315-.252-.14-.48-.35-.682-.63a7.12 7.12 0 0 1-.546-.882 17.7 17.7 0 0 1-.441-.903 7.872 7.872 0 0 0-.347-.693c-.322.112-.64.196-.955.252a5.448 5.448 0 0 1-.956.084c-.462 0-.928-.056-1.396-.168a2.576 2.576 0 0 1-1.208-.65 5.65 5.65 0 0 0-.798.671 7.048 7.048 0 0 0-.693.798c-.07 0-.105-.049-.105-.147.238-.28.48-.539.724-.777a7.4 7.4 0 0 1 .767-.65c-.448-.49-.672-1.1-.672-1.828 0-.448.087-.913.262-1.396.175-.483.4-.956.672-1.418.274-.462.571-.9.893-1.312.322-.413.637-.767.945-1.06a5.3 5.3 0 0 1 3.675-1.513c.07 0 .115.014.136.042a.14.14 0 0 1 .032.084c0 .042-.014.063-.042.063a.973.973 0 0 0-.189-.02h-.147c-.336 0-.672.08-1.008.24a4.53 4.53 0 0 0-.945.61c-.294.245-.56.504-.798.777s-.441.514-.609.724c-.196.266-.403.574-.62.924-.216.35-.416.718-.598 1.103a7.648 7.648 0 0 0-.452 1.218 4.79 4.79 0 0 0-.178 1.291c0 .364.07.721.21 1.071.476-.322.931-.535 1.365-.64.434-.105.791-.158 1.071-.158.154 0 .318.01.493.032.176.02.361.073.557.157.196.084.399.214.609.389.21.175.42.416.63.724a4.999 4.999 0 0 0 1.386-1.04 7.732 7.732 0 0 0 1.785-3.076c.168-.56.252-1.085.252-1.575 0-.448-.053-.864-.158-1.25a2.497 2.497 0 0 0-.472-.955 1.746 1.746 0 0 0-.388-.325 1.35 1.35 0 0 0-.41-.179c-.07-.028-.105-.049-.105-.063 0-.028.035-.042.105-.042.112 0 .245.004.399.01.154.008.294.011.42.011.084 0 .178.01.284.032a.63.63 0 0 1 .283.136c.21.168.413.417.609.746s.294.794.294 1.396c0 .42-.077.914-.231 1.48a7.43 7.43 0 0 1-.735 1.733A8.669 8.669 0 0 1 11.78 9.79a6.94 6.94 0 0 1-1.922 1.386c.084.126.182.29.294.494.112.203.238.42.378.65.14.232.294.466.462.704.168.238.343.462.525.672.406.462.826.693 1.26.693.084 0 .203-.014.357-.042.154-.028.325-.101.514-.22.19-.12.396-.305.62-.557.224-.252.448-.602.672-1.05.028-.042.063-.049.105-.02.042.027.063.07.063.125Zm-6.111-1.239-.304-.472a2.253 2.253 0 0 0-.378-.441 1.8 1.8 0 0 0-.525-.326 1.952 1.952 0 0 0-.746-.126c-.35 0-.686.06-1.008.179a4.965 4.965 0 0 0-.945.472c.238.392.574.658 1.008.798.434.14.861.21 1.281.21.532 0 1.071-.098 1.617-.294Z%22 fill=%22url(%23d)%22%3E%3C/path%3E%3C/svg%3E" preserveAspectRatio="none" clip-path="url(#satori_cp-id-0-0-0)" mask="url(#satori_om-id-0-0-0)"/><path fill="#fff" d="M431.9 298.2L422.0 298.2L422.0 251.6L431.9 251.6L431.9 270.8L451.9 270.8L451.9 251.6L461.7 251.6L461.7 298.2L451.9 298.2L451.9 279.0L431.9 279.0L431.9 298.2ZM485.5 298.9L485.5 298.9Q480.2 298.9 476.3 296.7Q472.4 294.5 470.3 290.4Q468.2 286.4 468.2 280.9L468.2 280.9Q468.2 275.5 470.3 271.4Q472.4 267.4 476.2 265.1Q480 262.8 485.1 262.8L485.1 262.8Q489.8 262.8 493.5 264.8Q497.2 266.7 499.4 270.7Q501.5 274.6 501.5 280.5L501.5 280.5L501.5 283.2L477.8 283.2L477.8 283.2Q477.8 287.1 479.9 289.4Q482.0 291.6 485.7 291.6L485.7 291.6Q488.1 291.6 489.9 290.6Q491.7 289.6 492.4 287.6L492.4 287.6L501.3 288.2Q500.3 293.0 496.2 296.0Q492 298.9 485.5 298.9ZM477.8 277.2L477.8 277.2L492.4 277.2Q492.4 274.1 490.4 272.1Q488.5 270.0 485.3 270.0L485.3 270.0Q482.1 270.0 480 272.1Q477.9 274.2 477.8 277.2ZM507.9 251.6L517.5 251.6L517.5 298.2L507.9 298.2L507.9 251.6ZM525.3 251.6L535.0 251.6L535.0 298.2L525.3 298.2L525.3 251.6ZM558.5 298.9L558.5 298.9Q553.2 298.9 549.3 296.6Q545.5 294.3 543.4 290.3Q541.3 286.2 541.3 280.9L541.3 280.9Q541.3 275.5 543.4 271.4Q545.5 267.3 549.3 265.1Q553.2 262.8 558.5 262.8L558.5 262.8Q563.7 262.8 567.6 265.1Q571.5 267.3 573.5 271.4Q575.6 275.5 575.6 280.9L575.6 280.9Q575.6 286.2 573.5 290.3Q571.5 294.3 567.6 296.6Q563.7 298.9 558.5 298.9ZM558.5 291.4L558.5 291.4Q562.1 291.4 563.9 288.4Q565.8 285.4 565.8 280.8L565.8 280.8Q565.8 276.2 563.9 273.2Q562.1 270.2 558.5 270.2L558.5 270.2Q554.8 270.2 553.0 273.2Q551.1 276.2 551.1 280.8L551.1 280.8Q551.1 285.4 553.0 288.4Q554.8 291.4 558.5 291.4Z M617.0 298.2L607.5 298.2L594.1 251.6L604.9 251.6L612.6 284.0L613.0 284.0L621.5 251.6L630.7 251.6L639.2 284.0L639.6 284.0L647.3 251.6L658.0 251.6L644.7 298.2L635.1 298.2L626.3 267.7L625.9 267.7L617.0 298.2ZM675.1 298.9L675.1 298.9Q669.8 298.9 665.9 296.6Q662.1 294.3 660 290.3Q657.9 286.2 657.9 280.9L657.9 280.9Q657.9 275.5 660 271.4Q662.1 267.3 665.9 265.1Q669.8 262.8 675.1 262.8L675.1 262.8Q680.4 262.8 684.2 265.1Q688.1 267.3 690.2 271.4Q692.3 275.5 692.3 280.9L692.3 280.9Q692.3 286.2 690.2 290.3Q688.1 294.3 684.2 296.6Q680.4 298.9 675.1 298.9ZM675.1 291.4L675.1 291.4Q678.7 291.4 680.6 288.4Q682.4 285.4 682.4 280.8L682.4 280.8Q682.4 276.2 680.6 273.2Q678.7 270.2 675.1 270.2L675.1 270.2Q671.5 270.2 669.6 273.2Q667.8 276.2 667.8 280.8L667.8 280.8Q667.8 285.4 669.6 288.4Q671.5 291.4 675.1 291.4ZM708.3 298.2L698.6 298.2L698.6 263.3L708.0 263.3L708.0 269.4L708.3 269.4Q709.3 266.1 711.5 264.4Q713.8 262.8 716.7 262.8L716.7 262.8Q718.3 262.8 719.8 263.1L719.8 263.1L719.8 271.7Q719.1 271.5 717.9 271.3Q716.7 271.2 715.7 271.2L715.7 271.2Q712.5 271.2 710.4 273.2Q708.3 275.2 708.3 278.4L708.3 278.4L708.3 298.2ZM724.8 251.6L734.4 251.6L734.4 298.2L724.8 298.2L724.8 251.6ZM755.0 298.7L755.0 298.7Q751.0 298.7 747.8 296.7Q744.6 294.6 742.8 290.6Q740.9 286.6 740.9 280.8L740.9 280.8Q740.9 274.8 742.8 270.8Q744.8 266.8 748.0 264.8Q751.2 262.8 755 262.8L755 262.8Q757.9 262.8 759.9 263.8Q761.9 264.8 763.1 266.2Q764.3 267.7 764.9 269.1L764.9 269.1L765.2 269.1L765.2 251.6L774.9 251.6L774.9 298.2L765.3 298.2L765.3 292.6L764.9 292.6Q764.3 294.0 763.0 295.5Q761.8 296.9 759.8 297.8Q757.8 298.7 755.0 298.7ZM758.1 291.0L758.1 291.0Q761.6 291.0 763.5 288.2Q765.4 285.4 765.4 280.7L765.4 280.7Q765.4 276.0 763.5 273.3Q761.6 270.5 758.1 270.5L758.1 270.5Q754.5 270.5 752.6 273.3Q750.8 276.2 750.8 280.7L750.8 280.7Q750.8 285.3 752.6 288.2Q754.5 291.0 758.1 291.0Z "/><path fill="#e5e5e5" d="M507.6 351.4L507.6 351.4Q505.0 351.4 503.1 350.1Q501.1 348.8 500.0 346.4Q498.8 343.9 498.8 340.6L498.8 340.6Q498.8 337.2 500.0 334.7Q501.1 332.3 503.1 331.1Q505.1 329.8 507.6 329.8L507.6 329.8Q509.6 329.8 510.8 330.4Q511.9 331.1 512.6 331.9Q513.3 332.8 513.6 333.4L513.6 333.4L513.9 333.4L513.9 323.1L518.0 323.1L518.0 351.0L514.0 351.0L514.0 347.7L513.6 347.7Q513.3 348.4 512.6 349.3Q511.9 350.1 510.7 350.8Q509.5 351.4 507.6 351.4ZM508.5 347.9L508.5 347.9Q511.1 347.9 512.5 345.9Q514.0 343.8 514.0 340.5L514.0 340.5Q514.0 337.2 512.6 335.2Q511.2 333.2 508.5 333.2L508.5 333.2Q506.6 333.2 505.4 334.2Q504.2 335.1 503.6 336.8Q502.9 338.4 502.9 340.5L502.9 340.5Q502.9 342.6 503.6 344.3Q504.2 346.0 505.4 346.9Q506.7 347.9 508.5 347.9ZM532.8 351.4L532.8 351.4Q529.7 351.4 527.5 350.1Q525.2 348.7 524.0 346.3Q522.8 343.9 522.8 340.7L522.8 340.7Q522.8 337.4 524.0 335.0Q525.2 332.5 527.4 331.1Q529.6 329.8 532.5 329.8L532.5 329.8Q534.9 329.8 537.0 330.8Q539.1 331.9 540.5 334.2Q541.8 336.5 541.8 340.3L541.8 340.3L541.8 341.7L526.9 341.7Q527.0 344.8 528.6 346.4Q530.2 348.0 532.8 348.0L532.8 348.0Q534.6 348.0 535.9 347.3Q537.1 346.5 537.7 345.1L537.7 345.1L541.5 345.8Q540.8 348.3 538.5 349.9Q536.2 351.4 532.8 351.4ZM526.9 338.7L526.9 338.7L537.8 338.7Q537.8 336.3 536.3 334.7Q534.9 333.1 532.5 333.1L532.5 333.1Q530.9 333.1 529.7 333.9Q528.4 334.7 527.7 335.9Q527.0 337.2 526.9 338.7ZM562.0 335.2L562.0 335.2L558.3 335.8Q558.0 334.8 557.0 333.9Q556.0 333.0 554.1 333.0L554.1 333.0Q552.4 333.0 551.2 333.8Q550.1 334.5 550.1 335.8L550.1 335.8Q550.1 336.8 550.9 337.5Q551.6 338.1 553.4 338.5L553.4 338.5L556.7 339.3Q562.4 340.6 562.4 344.9L562.4 344.9Q562.4 346.8 561.3 348.3Q560.3 349.7 558.3 350.6Q556.4 351.4 553.9 351.4L553.9 351.4Q550.3 351.4 548.1 349.9Q545.9 348.4 545.4 345.6L545.4 345.6L549.3 345.0Q550.1 348.1 553.8 348.1L553.8 348.1Q555.8 348.1 557.0 347.3Q558.2 346.4 558.2 345.2L558.2 345.2Q558.2 343.2 555.3 342.6L555.3 342.6L551.7 341.8Q548.8 341.1 547.4 339.7Q546.0 338.2 546.0 336.0L546.0 336.0Q546.0 334.1 547.0 332.7Q548.1 331.3 549.9 330.5Q551.7 329.8 554.1 329.8L554.1 329.8Q557.5 329.8 559.4 331.2Q561.4 332.7 562.0 335.2ZM575.7 351.4L575.7 351.4Q572.7 351.4 570.5 350.0Q568.3 348.6 567.1 346.2Q566.0 343.8 566.0 340.6L566.0 340.6Q566.0 337.4 567.2 335.0Q568.4 332.5 570.5 331.1Q572.7 329.8 575.7 329.8L575.7 329.8Q578.1 329.8 579.9 330.7Q581.8 331.5 583.0 333.1Q584.1 334.7 584.3 336.8L584.3 336.8L580.4 336.8Q580.0 335.3 578.9 334.3Q577.7 333.2 575.8 333.2L575.8 333.2Q573.2 333.2 571.6 335.2Q570.1 337.1 570.1 340.5L570.1 340.5Q570.1 343.9 571.6 346.0Q573.2 348.0 575.8 348.0L575.8 348.0Q577.5 348.0 578.7 347.0Q580.0 346.1 580.4 344.4L580.4 344.4L584.3 344.4Q584.1 346.4 583.0 348.0Q581.9 349.6 580.1 350.5Q578.2 351.4 575.7 351.4ZM592.8 351.0L588.7 351.0L588.7 330.0L592.6 330.0L592.6 333.4L592.9 333.4Q593.4 331.7 594.9 330.7Q596.3 329.7 598.2 329.7L598.2 329.7Q598.6 329.7 599.1 329.8Q599.6 329.8 599.9 329.8L599.9 329.8L599.9 333.7Q599.7 333.7 599.0 333.6Q598.4 333.5 597.8 333.5L597.8 333.5Q595.6 333.5 594.2 334.8Q592.8 336.1 592.8 338.2L592.8 338.2L592.8 351.0ZM607.5 351.0L603.5 351.0L603.5 330.0L607.5 330.0L607.5 351.0ZM605.5 326.8L605.5 326.8Q604.5 326.8 603.7 326.1Q602.9 325.4 602.9 324.4L602.9 324.4Q602.9 323.4 603.7 322.7Q604.5 321.9 605.5 321.9L605.5 321.9Q606.6 321.9 607.3 322.7Q608.1 323.4 608.1 324.4L608.1 324.4Q608.1 325.4 607.3 326.1Q606.6 326.8 605.5 326.8ZM617.1 358.8L613.0 358.8L613.0 330.0L617.0 330.0L617.0 333.4L617.3 333.4Q617.7 332.8 618.4 331.9Q619.0 331.1 620.2 330.4Q621.4 329.8 623.4 329.8L623.4 329.8Q625.9 329.8 627.9 331.1Q629.9 332.3 631.0 334.7Q632.1 337.2 632.1 340.6L632.1 340.6Q632.1 343.9 631.0 346.4Q629.9 348.8 627.9 350.1Q625.9 351.4 623.4 351.4L623.4 351.4Q621.5 351.4 620.3 350.8Q619.1 350.1 618.4 349.3Q617.7 348.4 617.3 347.7L617.3 347.7L617.1 347.7L617.1 358.8ZM617.0 340.5L617.0 340.5Q617.0 343.8 618.4 345.9Q619.8 347.9 622.5 347.9L622.5 347.9Q624.3 347.9 625.5 346.9Q626.8 346.0 627.4 344.3Q628.0 342.6 628.0 340.5L628.0 340.5Q628.0 338.4 627.4 336.8Q626.8 335.1 625.6 334.2Q624.3 333.2 622.5 333.2L622.5 333.2Q619.8 333.2 618.4 335.2Q617.0 337.2 617.0 340.5ZM642.2 330.0L646.5 330.0L646.5 333.3L642.2 333.3L642.2 344.8Q642.2 346.6 643.0 347.1Q643.7 347.6 644.7 347.6L644.7 347.6Q645.2 347.6 645.6 347.6Q645.9 347.5 646.1 347.5L646.1 347.5L646.9 350.8Q646.5 351.0 645.9 351.1Q645.2 351.2 644.2 351.3L644.2 351.3Q642.6 351.3 641.2 350.7Q639.8 350.1 639.0 348.8Q638.1 347.6 638.1 345.7L638.1 345.7L638.1 333.3L635.1 333.3L635.1 330.0L638.1 330.0L638.1 325.0L642.2 325.0L642.2 330.0ZM655.1 351.0L651.0 351.0L651.0 330.0L655.1 330.0L655.1 351.0ZM653.1 326.8L653.1 326.8Q652.0 326.8 651.2 326.1Q650.5 325.4 650.5 324.4L650.5 324.4Q650.5 323.4 651.2 322.7Q652.0 321.9 653.1 321.9L653.1 321.9Q654.1 321.9 654.9 322.7Q655.6 323.4 655.6 324.4L655.6 324.4Q655.6 325.4 654.9 326.1Q654.1 326.8 653.1 326.8ZM669.4 351.4L669.4 351.4Q666.4 351.4 664.2 350.1Q662.0 348.7 660.8 346.3Q659.6 343.8 659.6 340.6L659.6 340.6Q659.6 337.4 660.8 334.9Q662.0 332.5 664.2 331.1Q666.4 329.8 669.4 329.8L669.4 329.8Q672.3 329.8 674.5 331.1Q676.7 332.5 677.9 334.9Q679.1 337.4 679.1 340.6L679.1 340.6Q679.1 343.8 677.9 346.3Q676.7 348.7 674.5 350.1Q672.3 351.4 669.4 351.4ZM669.4 348.0L669.4 348.0Q671.3 348.0 672.6 347.0Q673.8 346.0 674.4 344.3Q675.0 342.6 675.0 340.6L675.0 340.6Q675.0 338.6 674.4 336.9Q673.8 335.2 672.6 334.2Q671.3 333.2 669.4 333.2L669.4 333.2Q667.5 333.2 666.2 334.2Q665.0 335.2 664.3 336.9Q663.7 338.6 663.7 340.6L663.7 340.6Q663.7 342.6 664.3 344.3Q665.0 346.0 666.2 347.0Q667.5 348.0 669.4 348.0ZM687.8 338.6L687.8 338.6L687.8 351.0L683.7 351.0L683.7 330.0L687.6 330.0L687.6 333.5L687.9 333.5Q688.6 331.8 690.1 330.8Q691.7 329.8 694.0 329.8L694.0 329.8Q697.2 329.8 699.2 331.8Q701.2 333.8 701.2 337.7L701.2 337.7L701.2 351.0L697.1 351.0L697.1 338.2Q697.1 335.9 695.9 334.6Q694.7 333.3 692.6 333.3L692.6 333.3Q690.5 333.3 689.1 334.7Q687.8 336.0 687.8 338.6Z "/><path fill="#737373" d="M933.7 592.0L929.3 592.0L929.3 580.4L933.5 580.4Q934.8 580.4 935.6 580.8Q936.4 581.2 936.8 581.9Q937.2 582.6 937.2 583.4L937.2 583.4Q937.2 584.5 936.6 585.1Q936.1 585.7 935.3 585.9L935.3 585.9L935.3 586.0Q935.8 586.0 936.4 586.4Q936.9 586.7 937.3 587.3Q937.7 588.0 937.7 588.9L937.7 588.9Q937.7 589.8 937.2 590.5Q936.8 591.2 936.0 591.6Q935.1 592.0 933.7 592.0L933.7 592.0ZM931.0 586.8L931.0 590.5L933.6 590.5Q934.8 590.5 935.4 590.0Q935.9 589.5 935.9 588.8L935.9 588.8Q935.9 588.0 935.3 587.4Q934.7 586.8 933.6 586.8L933.6 586.8L931.0 586.8ZM931.0 581.9L931.0 585.4L933.4 585.4Q934.3 585.4 934.9 584.9Q935.5 584.4 935.5 583.6L935.5 583.6Q935.5 582.8 935.0 582.3Q934.5 581.9 933.4 581.9L933.4 581.9L931.0 581.9ZM940.7 595.3L940.7 595.3Q940.3 595.3 940.0 595.2Q939.7 595.1 939.5 595.1L939.5 595.1L939.9 593.7Q940.6 593.9 941.1 593.7Q941.6 593.6 941.9 592.7L941.9 592.7L942.1 592.1L938.9 583.3L940.7 583.3L942.9 590.0L943.0 590.0L945.3 583.3L947.1 583.3L943.5 593.2Q943.1 594.2 942.4 594.7Q941.7 595.3 940.7 595.3Z M963.2 586.2L963.2 586.2Q963.2 587.8 962.6 589.0Q962.1 590.2 961.2 591.0L961.2 591.0L962.8 593.0L961.0 593.0L960.0 591.8Q959.0 592.2 957.9 592.2L957.9 592.2Q956.4 592.2 955.2 591.4Q954.0 590.7 953.4 589.4Q952.7 588.0 952.7 586.2L952.7 586.2Q952.7 584.3 953.4 583.0Q954.0 581.6 955.2 580.9Q956.4 580.2 957.9 580.2L957.9 580.2Q959.4 580.2 960.6 580.9Q961.8 581.6 962.5 583.0Q963.2 584.3 963.2 586.2ZM959.0 590.4L957.3 588.2L959.1 588.2L960.2 589.7Q960.8 589.1 961.1 588.3Q961.4 587.4 961.4 586.2L961.4 586.2Q961.4 584.8 961.0 583.8Q960.5 582.8 959.7 582.3Q958.9 581.8 957.9 581.8L957.9 581.8Q956.9 581.8 956.1 582.3Q955.3 582.8 954.9 583.8Q954.4 584.8 954.4 586.2L954.4 586.2Q954.4 587.6 954.9 588.6Q955.3 589.5 956.1 590.0Q956.9 590.6 957.9 590.6L957.9 590.6Q958.5 590.6 959.0 590.4L959.0 590.4ZM965.6 592.1L965.6 592.1Q965.1 592.1 964.8 591.8Q964.5 591.4 964.5 591.0L964.5 591.0Q964.5 590.5 964.8 590.2Q965.1 589.8 965.6 589.8L965.6 589.8Q966.1 589.8 966.4 590.2Q966.7 590.5 966.7 591.0L966.7 591.0Q966.7 591.4 966.4 591.8Q966.1 592.1 965.6 592.1ZM973.6 592.0L969.1 592.0L969.1 580.4L973.4 580.4Q974.6 580.4 975.5 580.8Q976.3 581.2 976.7 581.9Q977.1 582.6 977.1 583.4L977.1 583.4Q977.1 584.5 976.5 585.1Q975.9 585.7 975.1 585.9L975.1 585.9L975.1 586.0Q975.7 586.0 976.2 586.4Q976.8 586.7 977.2 587.3Q977.5 588.0 977.5 588.9L977.5 588.9Q977.5 589.8 977.1 590.5Q976.7 591.2 975.8 591.6Q975.0 592.0 973.6 592.0L973.6 592.0ZM970.9 586.8L970.9 590.5L973.4 590.5Q974.7 590.5 975.2 590.0Q975.8 589.5 975.8 588.8L975.8 588.8Q975.8 588.0 975.2 587.4Q974.6 586.8 973.5 586.8L973.5 586.8L970.9 586.8ZM970.9 581.9L970.9 585.4L973.3 585.4Q974.1 585.4 974.7 584.9Q975.4 584.4 975.4 583.6L975.4 583.6Q975.4 582.8 974.8 582.3Q974.3 581.9 973.3 581.9L973.3 581.9L970.9 581.9ZM983.2 592.2L983.2 592.2Q981.9 592.2 981.0 591.6Q980.1 591.1 979.6 590.0Q979.1 589.0 979.1 587.7L979.1 587.7Q979.1 586.3 979.6 585.3Q980.1 584.3 981.0 583.7Q981.9 583.2 983.1 583.2L983.1 583.2Q984.1 583.2 985.0 583.6Q985.9 584.0 986.4 585.0Q987.0 586.0 987.0 587.5L987.0 587.5L987.0 588.1L980.8 588.1Q980.8 589.4 981.5 590.1Q982.2 590.8 983.3 590.8L983.3 590.8Q984.0 590.8 984.5 590.5Q985.0 590.1 985.3 589.5L985.3 589.5L986.9 589.8Q986.6 590.9 985.6 591.5Q984.7 592.2 983.2 592.2ZM980.8 586.9L980.8 586.9L985.3 586.9Q985.3 585.9 984.7 585.2Q984.1 584.6 983.1 584.6L983.1 584.6Q982.4 584.6 981.9 584.9Q981.4 585.2 981.1 585.7Q980.8 586.3 980.8 586.9ZM990.6 586.8L990.6 586.8L990.6 592.0L988.9 592.0L988.9 583.3L990.5 583.3L990.5 584.7L990.6 584.7Q990.9 584.0 991.6 583.6Q992.2 583.2 993.2 583.2L993.2 583.2Q994.5 583.2 995.3 584.0Q996.2 584.8 996.2 586.4L996.2 586.4L996.2 592.0L994.5 592.0L994.5 586.6Q994.5 585.7 994.0 585.2Q993.5 584.6 992.6 584.6L992.6 584.6Q991.7 584.6 991.1 585.2Q990.6 585.8 990.6 586.8Z M1011.5 592.0L1003.2 592.0L1003.2 590.8L1009.3 581.9L1003.2 581.9L1003.2 580.4L1011.5 580.4L1011.5 581.5L1005.4 590.5L1011.5 590.5L1011.5 592.0ZM1015.3 586.8L1015.3 586.8L1015.3 592.0L1013.6 592.0L1013.6 580.4L1015.3 580.4L1015.3 584.7L1015.4 584.7Q1015.7 584.0 1016.3 583.6Q1017.0 583.2 1018.0 583.2L1018.0 583.2Q1019.3 583.2 1020.2 584.0Q1021.0 584.8 1021.0 586.4L1021.0 586.4L1021.0 592.0L1019.3 592.0L1019.3 586.6Q1019.3 585.7 1018.8 585.2Q1018.3 584.6 1017.4 584.6L1017.4 584.6Q1016.5 584.6 1015.9 585.2Q1015.3 585.8 1015.3 586.8ZM1027.0 592.2L1027.0 592.2Q1025.7 592.2 1024.8 591.6Q1023.9 591.1 1023.4 590.0Q1022.9 589.0 1022.9 587.7L1022.9 587.7Q1022.9 586.3 1023.4 585.3Q1023.9 584.3 1024.8 583.7Q1025.7 583.2 1026.9 583.2L1026.9 583.2Q1027.9 583.2 1028.8 583.6Q1029.6 584.0 1030.2 585.0Q1030.8 586.0 1030.8 587.5L1030.8 587.5L1030.8 588.1L1024.5 588.1Q1024.6 589.4 1025.3 590.1Q1025.9 590.8 1027.0 590.8L1027.0 590.8Q1027.8 590.8 1028.3 590.5Q1028.8 590.1 1029.0 589.5L1029.0 589.5L1030.6 589.8Q1030.4 590.9 1029.4 591.5Q1028.4 592.2 1027.0 592.2ZM1024.6 586.9L1024.6 586.9L1029.1 586.9Q1029.1 585.9 1028.5 585.2Q1027.9 584.6 1026.9 584.6L1026.9 584.6Q1026.2 584.6 1025.7 584.9Q1025.2 585.2 1024.9 585.7Q1024.6 586.3 1024.6 586.9ZM1034.3 586.8L1034.3 586.8L1034.3 592.0L1032.6 592.0L1032.6 583.3L1034.3 583.3L1034.3 584.7L1034.4 584.7Q1034.7 584.0 1035.3 583.6Q1036.0 583.2 1037.0 583.2L1037.0 583.2Q1038.3 583.2 1039.1 584.0Q1039.9 584.8 1039.9 586.4L1039.9 586.4L1039.9 592.0L1038.2 592.0L1038.2 586.6Q1038.2 585.7 1037.7 585.2Q1037.2 584.6 1036.4 584.6L1036.4 584.6Q1035.5 584.6 1034.9 585.2Q1034.3 585.8 1034.3 586.8ZM1045.9 595.5L1045.9 595.5Q1044.3 595.5 1043.4 594.9Q1042.5 594.3 1042.1 593.5L1042.1 593.5L1043.6 592.9Q1043.8 593.1 1044.0 593.4Q1044.3 593.7 1044.7 593.9Q1045.2 594.1 1045.9 594.1L1045.9 594.1Q1046.8 594.1 1047.5 593.6Q1048.1 593.1 1048.1 592.1L1048.1 592.1L1048.1 590.4L1048.0 590.4Q1047.8 590.7 1047.6 591.0Q1047.3 591.4 1046.8 591.6Q1046.3 591.9 1045.5 591.9L1045.5 591.9Q1044.4 591.9 1043.6 591.4Q1042.8 590.9 1042.3 589.9Q1041.8 589.0 1041.8 587.6L1041.8 587.6Q1041.8 586.2 1042.3 585.2Q1042.8 584.2 1043.6 583.7Q1044.4 583.2 1045.5 583.2L1045.5 583.2Q1046.3 583.2 1046.8 583.4Q1047.3 583.7 1047.6 584.1Q1047.9 584.4 1048.0 584.7L1048.0 584.7L1048.1 584.7L1048.1 583.3L1049.8 583.3L1049.8 592.2Q1049.8 593.3 1049.3 594.0Q1048.8 594.8 1047.9 595.1Q1047.0 595.5 1045.9 595.5ZM1045.8 590.5L1045.8 590.5Q1046.9 590.5 1047.5 589.7Q1048.1 588.9 1048.1 587.6L1048.1 587.6Q1048.1 586.3 1047.5 585.4Q1047.0 584.6 1045.8 584.6L1045.8 584.6Q1045.1 584.6 1044.6 585.0Q1044.1 585.4 1043.8 586.1Q1043.5 586.7 1043.5 587.6L1043.5 587.6Q1043.5 588.9 1044.1 589.7Q1044.7 590.5 1045.8 590.5Z "/><defs><clipPath id="satori_bc-id-0-2-0-1"><rect x="1059" y="576" width="109" height="20"/></clipPath></defs><path width="109" height="20" clip-path="url(#satori_bc-id-0-2-0-1)" fill="none" stroke="#a3a3a3" stroke-width="2" d="M1168,596 A0,0 0 0 1 1168,596 h-109 A0,0 0 0 1 1059,596"/><path fill="#737373" d="M1061.8 585.8L1061.8 585.8L1061.8 591.0L1060.1 591.0L1060.1 579.4L1061.8 579.4L1061.8 583.7L1061.9 583.7Q1062.2 583.0 1062.9 582.6Q1063.5 582.2 1064.5 582.2L1064.5 582.2Q1065.9 582.2 1066.7 583.0Q1067.5 583.8 1067.5 585.4L1067.5 585.4L1067.5 591.0L1065.8 591.0L1065.8 585.6Q1065.8 584.7 1065.3 584.2Q1064.8 583.6 1063.9 583.6L1063.9 583.6Q1063.0 583.6 1062.4 584.2Q1061.8 584.8 1061.8 585.8ZM1072.1 582.3L1073.8 582.3L1073.8 583.6L1072.1 583.6L1072.1 588.4Q1072.1 589.2 1072.4 589.4Q1072.7 589.6 1073.1 589.6L1073.1 589.6Q1073.3 589.6 1073.5 589.6Q1073.6 589.5 1073.7 589.5L1073.7 589.5L1074.0 590.9Q1073.9 591.0 1073.6 591.0Q1073.3 591.1 1072.9 591.1L1072.9 591.1Q1072.2 591.1 1071.7 590.9Q1071.1 590.6 1070.7 590.1Q1070.4 589.6 1070.4 588.8L1070.4 588.8L1070.4 583.6L1069.1 583.6L1069.1 582.3L1070.4 582.3L1070.4 580.2L1072.1 580.2L1072.1 582.3ZM1078.0 582.3L1079.8 582.3L1079.8 583.6L1078.0 583.6L1078.0 588.4Q1078.0 589.2 1078.3 589.4Q1078.6 589.6 1079.1 589.6L1079.1 589.6Q1079.3 589.6 1079.4 589.6Q1079.6 589.5 1079.6 589.5L1079.6 589.5L1080.0 590.9Q1079.8 591.0 1079.5 591.0Q1079.3 591.1 1078.9 591.1L1078.9 591.1Q1078.2 591.1 1077.6 590.9Q1077.0 590.6 1076.7 590.1Q1076.3 589.6 1076.3 588.8L1076.3 588.8L1076.3 583.6L1075.0 583.6L1075.0 582.3L1076.3 582.3L1076.3 580.2L1078.0 580.2L1078.0 582.3ZM1083.4 594.3L1081.7 594.3L1081.7 582.3L1083.3 582.3L1083.3 583.7L1083.5 583.7Q1083.6 583.4 1083.9 583.1Q1084.2 582.7 1084.7 582.4Q1085.2 582.2 1086.0 582.2L1086.0 582.2Q1087.0 582.2 1087.9 582.7Q1088.7 583.2 1089.2 584.2Q1089.6 585.2 1089.6 586.6L1089.6 586.6Q1089.6 588.1 1089.2 589.1Q1088.7 590.1 1087.9 590.6Q1087.1 591.2 1086.0 591.2L1086.0 591.2Q1085.2 591.2 1084.7 590.9Q1084.2 590.6 1083.9 590.3Q1083.6 589.9 1083.5 589.6L1083.5 589.6L1083.4 589.6L1083.4 594.3ZM1083.3 586.6L1083.3 586.6Q1083.3 588.0 1083.9 588.9Q1084.5 589.7 1085.6 589.7L1085.6 589.7Q1086.4 589.7 1086.9 589.3Q1087.4 588.9 1087.7 588.2Q1087.9 587.5 1087.9 586.6L1087.9 586.6Q1087.9 585.8 1087.7 585.1Q1087.4 584.4 1086.9 584.0Q1086.4 583.6 1085.6 583.6L1085.6 583.6Q1084.5 583.6 1083.9 584.4Q1083.3 585.3 1083.3 586.6ZM1098.1 584.4L1098.1 584.4L1096.5 584.7Q1096.4 584.2 1096.0 583.9Q1095.6 583.5 1094.8 583.5L1094.8 583.5Q1094.1 583.5 1093.6 583.8Q1093.1 584.1 1093.1 584.6L1093.1 584.6Q1093.1 585.1 1093.4 585.4Q1093.8 585.6 1094.5 585.8L1094.5 585.8L1095.9 586.1Q1098.3 586.7 1098.3 588.5L1098.3 588.5Q1098.3 589.3 1097.8 589.9Q1097.4 590.5 1096.5 590.8Q1095.7 591.2 1094.7 591.2L1094.7 591.2Q1093.2 591.2 1092.3 590.5Q1091.4 589.9 1091.2 588.8L1091.2 588.8L1092.8 588.5Q1093.1 589.8 1094.7 589.8L1094.7 589.8Q1095.5 589.8 1096.0 589.5Q1096.5 589.1 1096.5 588.6L1096.5 588.6Q1096.5 587.8 1095.3 587.5L1095.3 587.5L1093.8 587.2Q1092.6 586.9 1092.0 586.3Q1091.4 585.7 1091.4 584.7L1091.4 584.7Q1091.4 584.0 1091.8 583.4Q1092.3 582.8 1093.0 582.5Q1093.8 582.2 1094.8 582.2L1094.8 582.2Q1096.2 582.2 1097.0 582.8Q1097.8 583.4 1098.1 584.4ZM1101.2 584.8L1101.2 584.8Q1100.8 584.8 1100.4 584.4Q1100.1 584.1 1100.1 583.6L1100.1 583.6Q1100.1 583.1 1100.4 582.8Q1100.8 582.5 1101.2 582.5L1101.2 582.5Q1101.7 582.5 1102.0 582.8Q1102.4 583.1 1102.4 583.6L1102.4 583.6Q1102.4 584.1 1102.0 584.4Q1101.7 584.8 1101.2 584.8ZM1101.2 591.1L1101.2 591.1Q1100.8 591.1 1100.4 590.8Q1100.1 590.4 1100.1 590.0L1100.1 590.0Q1100.1 589.5 1100.4 589.2Q1100.8 588.8 1101.2 588.8L1101.2 588.8Q1101.7 588.8 1102.0 589.2Q1102.4 589.5 1102.4 590.0L1102.4 590.0Q1102.4 590.4 1102.0 590.8Q1101.7 591.1 1101.2 591.1ZM1107.6 578.8L1109.1 578.8L1105.3 592.7L1103.8 592.7L1107.6 578.8ZM1113.4 578.8L1115.0 578.8L1111.2 592.7L1109.7 592.7L1113.4 578.8ZM1124 594.3L1122.3 594.3L1122.3 589.6L1122.2 589.6Q1122.0 589.9 1121.8 590.3Q1121.5 590.6 1121.0 590.9Q1120.5 591.2 1119.7 591.2L1119.7 591.2Q1118.6 591.2 1117.8 590.6Q1117.0 590.1 1116.5 589.1Q1116.0 588.1 1116.0 586.6L1116.0 586.6Q1116.0 585.2 1116.5 584.2Q1117.0 583.2 1117.8 582.7Q1118.6 582.2 1119.7 582.2L1119.7 582.2Q1120.5 582.2 1121.0 582.4Q1121.5 582.7 1121.8 583.1Q1122.0 583.4 1122.2 583.7L1122.2 583.7L1122.3 583.7L1122.3 582.3L1124 582.3L1124 594.3ZM1120.1 589.7L1120.1 589.7Q1121.2 589.7 1121.7 588.9Q1122.3 588.0 1122.3 586.6L1122.3 586.6Q1122.3 585.3 1121.7 584.4Q1121.2 583.6 1120.1 583.6L1120.1 583.6Q1119.3 583.6 1118.8 584.0Q1118.3 584.4 1118.0 585.1Q1117.7 585.8 1117.7 586.6L1117.7 586.6Q1117.7 587.5 1118.0 588.2Q1118.3 588.9 1118.8 589.3Q1119.3 589.7 1120.1 589.7ZM1128.1 591.0L1126.4 591.0L1126.4 579.4L1128.1 579.4L1128.1 583.7L1128.2 583.7Q1128.4 583.4 1128.7 583.1Q1128.9 582.7 1129.4 582.4Q1129.9 582.2 1130.7 582.2L1130.7 582.2Q1131.8 582.2 1132.6 582.7Q1133.4 583.2 1133.9 584.2Q1134.4 585.2 1134.4 586.6L1134.4 586.6Q1134.4 588.1 1133.9 589.1Q1133.4 590.1 1132.6 590.6Q1131.8 591.2 1130.7 591.2L1130.7 591.2Q1129.9 591.2 1129.4 590.9Q1128.9 590.6 1128.7 590.3Q1128.4 589.9 1128.2 589.6L1128.2 589.6L1128.1 589.6L1128.1 591.0ZM1128.1 586.6L1128.1 586.6Q1128.1 588.0 1128.7 588.9Q1129.3 589.7 1130.4 589.7L1130.4 589.7Q1131.1 589.7 1131.6 589.3Q1132.2 588.9 1132.4 588.2Q1132.7 587.5 1132.7 586.6L1132.7 586.6Q1132.7 585.8 1132.4 585.1Q1132.2 584.4 1131.6 584.0Q1131.1 583.6 1130.4 583.6L1130.4 583.6Q1129.3 583.6 1128.7 584.4Q1128.1 585.3 1128.1 586.6ZM1138.1 591.0L1136.4 591.0L1136.4 579.4L1138.1 579.4L1138.1 583.7L1138.2 583.7Q1138.4 583.4 1138.7 583.1Q1138.9 582.7 1139.4 582.4Q1139.9 582.2 1140.7 582.2L1140.7 582.2Q1141.8 582.2 1142.6 582.7Q1143.4 583.2 1143.9 584.2Q1144.4 585.2 1144.4 586.6L1144.4 586.6Q1144.4 588.1 1143.9 589.1Q1143.5 590.1 1142.6 590.6Q1141.8 591.2 1140.8 591.2L1140.8 591.2Q1140.0 591.2 1139.5 590.9Q1139.0 590.6 1138.7 590.3Q1138.4 589.9 1138.2 589.6L1138.2 589.6L1138.1 589.6L1138.1 591.0ZM1138.1 586.6L1138.1 586.6Q1138.1 588.0 1138.7 588.9Q1139.3 589.7 1140.4 589.7L1140.4 589.7Q1141.1 589.7 1141.7 589.3Q1142.2 588.9 1142.4 588.2Q1142.7 587.5 1142.7 586.6L1142.7 586.6Q1142.7 585.8 1142.4 585.1Q1142.2 584.4 1141.7 584.0Q1141.1 583.6 1140.4 583.6L1140.4 583.6Q1139.3 583.6 1138.7 584.4Q1138.1 585.3 1138.1 586.6ZM1147.4 591.1L1147.4 591.1Q1147.0 591.1 1146.6 590.8Q1146.3 590.4 1146.3 590.0L1146.3 590.0Q1146.3 589.5 1146.6 589.2Q1147.0 588.8 1147.4 588.8L1147.4 588.8Q1147.9 588.8 1148.2 589.2Q1148.6 589.5 1148.6 590.0L1148.6 590.0Q1148.6 590.4 1148.2 590.8Q1147.9 591.1 1147.4 591.1ZM1157.4 584.4L1157.4 584.4L1155.8 584.7Q1155.7 584.2 1155.3 583.9Q1154.9 583.5 1154.1 583.5L1154.1 583.5Q1153.4 583.5 1152.9 583.8Q1152.4 584.1 1152.4 584.6L1152.4 584.6Q1152.4 585.1 1152.7 585.4Q1153.1 585.6 1153.8 585.8L1153.8 585.8L1155.2 586.1Q1157.5 586.7 1157.5 588.5L1157.5 588.5Q1157.5 589.3 1157.1 589.9Q1156.6 590.5 1155.8 590.8Q1155.0 591.2 1154.0 591.2L1154.0 591.2Q1152.5 591.2 1151.6 590.5Q1150.7 589.9 1150.4 588.8L1150.4 588.8L1152.1 588.5Q1152.4 589.8 1154.0 589.8L1154.0 589.8Q1154.8 589.8 1155.3 589.5Q1155.8 589.1 1155.8 588.6L1155.8 588.6Q1155.8 587.8 1154.6 587.5L1154.6 587.5L1153.1 587.2Q1151.9 586.9 1151.3 586.3Q1150.7 585.7 1150.7 584.7L1150.7 584.7Q1150.7 584.0 1151.1 583.4Q1151.6 582.8 1152.3 582.5Q1153.1 582.2 1154.1 582.2L1154.1 582.2Q1155.5 582.2 1156.3 582.8Q1157.1 583.4 1157.4 584.4ZM1161.1 585.8L1161.1 585.8L1161.1 591.0L1159.4 591.0L1159.4 579.4L1161.1 579.4L1161.1 583.7L1161.2 583.7Q1161.5 583.0 1162.1 582.6Q1162.8 582.2 1163.8 582.2L1163.8 582.2Q1165.1 582.2 1165.9 583.0Q1166.8 583.8 1166.8 585.4L1166.8 585.4L1166.8 591.0L1165.1 591.0L1165.1 585.6Q1165.1 584.7 1164.6 584.2Q1164.1 583.6 1163.2 583.6L1163.2 583.6Q1162.3 583.6 1161.7 584.2Q1161.1 584.8 1161.1 585.8Z "/></svg>